<?xml version="1.0" encoding="UTF-8"?>
<svg xmlns="http://www.w3.org/2000/svg" xmlns:xlink="http://www.w3.org/1999/xlink" width="375pt" height="374.999991pt" viewBox="0 0 375 374.999991" version="1.2">
<g id="surface1">
<path style=" stroke:none;fill-rule:nonzero;fill:rgb(12.159729%,34.509277%,30.589294%);fill-opacity:1;" d="M 196.191406 41.625 L 198.558594 81.8125 L 176.441406 81.8125 L 178.808594 41.625 L 196.191406 41.625 "/>
<path style=" stroke:none;fill-rule:nonzero;fill:rgb(12.159729%,34.509277%,30.589294%);fill-opacity:1;" d="M 122.09375 56.835938 L 144.238281 90.429688 L 125.074219 101.511719 L 107.03125 65.503906 L 122.09375 56.835938 "/>
<path style=" stroke:none;fill-rule:nonzero;fill:rgb(12.159729%,34.509277%,30.589294%);fill-opacity:1;" d="M 65.503906 107.03125 L 101.511719 125.074219 L 90.429688 144.238281 L 56.835938 122.09375 L 65.503906 107.03125 "/>
<path style=" stroke:none;fill-rule:nonzero;fill:rgb(12.159729%,34.509277%,30.589294%);fill-opacity:1;" d="M 41.625 178.808594 L 81.8125 176.441406 L 81.8125 198.558594 L 41.625 196.191406 L 41.625 178.808594 "/>
<path style=" stroke:none;fill-rule:nonzero;fill:rgb(12.159729%,34.509277%,30.589294%);fill-opacity:1;" d="M 56.835938 252.90625 L 90.429688 230.761719 L 101.511719 249.925781 L 65.503906 267.96875 L 56.835938 252.90625 "/>
<path style=" stroke:none;fill-rule:nonzero;fill:rgb(12.159729%,34.509277%,30.589294%);fill-opacity:1;" d="M 107.03125 309.496094 L 125.074219 273.484375 L 144.238281 284.570312 L 122.09375 318.164062 L 107.03125 309.496094 "/>
<path style=" stroke:none;fill-rule:nonzero;fill:rgb(12.159729%,34.509277%,30.589294%);fill-opacity:1;" d="M 178.808594 333.375 L 176.441406 293.1875 L 198.558594 293.1875 L 196.191406 333.375 L 178.808594 333.375 "/>
<path style=" stroke:none;fill-rule:nonzero;fill:rgb(12.159729%,34.509277%,30.589294%);fill-opacity:1;" d="M 252.90625 318.164062 L 230.761719 284.570312 L 249.925781 273.484375 L 267.96875 309.496094 L 252.90625 318.164062 "/>
<path style=" stroke:none;fill-rule:nonzero;fill:rgb(12.159729%,34.509277%,30.589294%);fill-opacity:1;" d="M 309.496094 267.96875 L 273.484375 249.925781 L 284.570312 230.761719 L 318.164062 252.90625 L 309.496094 267.96875 "/>
<path style=" stroke:none;fill-rule:nonzero;fill:rgb(12.159729%,34.509277%,30.589294%);fill-opacity:1;" d="M 333.375 196.191406 L 293.1875 198.558594 L 293.1875 176.441406 L 333.375 178.808594 L 333.375 196.191406 "/>
<path style=" stroke:none;fill-rule:nonzero;fill:rgb(12.159729%,34.509277%,30.589294%);fill-opacity:1;" d="M 318.164062 122.09375 L 284.570312 144.238281 L 273.484375 125.074219 L 309.496094 107.03125 L 318.164062 122.09375 "/>
<path style=" stroke:none;fill-rule:nonzero;fill:rgb(12.159729%,34.509277%,30.589294%);fill-opacity:1;" d="M 267.96875 65.503906 L 249.925781 101.511719 L 230.761719 90.429688 L 252.90625 56.835938 L 267.96875 65.503906 "/>
<path style=" stroke:none;fill-rule:nonzero;fill:rgb(13.328552%,38.819885%,34.118652%);fill-opacity:1;" d="M 306.25 187.5 C 306.25 253.074219 253.074219 306.25 187.5 306.25 C 121.921875 306.25 68.75 253.074219 68.75 187.5 C 68.75 121.921875 121.921875 68.75 187.5 68.75 C 253.074219 68.75 306.25 121.921875 306.25 187.5 "/>
<path style=" stroke:none;fill-rule:nonzero;fill:rgb(12.159729%,34.509277%,30.589294%);fill-opacity:1;" d="M 187.5 68.75 C 178.929688 68.75 170.554688 69.703125 162.5 71.433594 C 216.0625 82.933594 256.25 130.492188 256.25 187.5 C 256.25 244.507812 216.0625 292.066406 162.5 303.5625 C 170.554688 305.296875 178.929688 306.25 187.5 306.25 C 253.074219 306.25 306.25 253.074219 306.25 187.5 C 306.25 121.921875 253.074219 68.75 187.5 68.75 "/>
<path style=" stroke:none;fill-rule:nonzero;fill:rgb(80.778503%,14.898682%,14.118958%);fill-opacity:1;" d="M 131.25 168.75 C 138.160156 168.75 143.75 163.160156 143.75 156.25 C 143.75 149.339844 138.160156 143.75 131.25 143.75 C 124.339844 143.75 118.75 149.339844 118.75 156.25 C 118.75 163.160156 124.339844 168.75 131.25 168.75 "/>
<path style=" stroke:none;fill-rule:nonzero;fill:rgb(80.778503%,14.898682%,14.118958%);fill-opacity:1;" d="M 193.75 243.75 C 186.839844 243.75 181.25 249.339844 181.25 256.25 C 181.25 263.160156 186.839844 268.75 193.75 268.75 C 200.660156 268.75 206.25 263.160156 206.25 256.25 C 206.25 249.339844 200.660156 243.75 193.75 243.75 "/>
<path style=" stroke:none;fill-rule:nonzero;fill:rgb(80.778503%,14.898682%,14.118958%);fill-opacity:1;" d="M 243.75 162.5 C 250.660156 162.5 256.25 156.910156 256.25 150 C 256.25 143.089844 250.660156 137.5 243.75 137.5 C 236.839844 137.5 231.25 143.089844 231.25 150 C 231.25 156.910156 236.839844 162.5 243.75 162.5 "/>
<path style=" stroke:none;fill-rule:nonzero;fill:rgb(80.778503%,14.898682%,14.118958%);fill-opacity:1;" d="M 200 187.5 C 200 180.589844 194.410156 175 187.5 175 C 180.589844 175 175 180.589844 175 187.5 C 175 194.410156 180.589844 200 187.5 200 C 194.410156 200 200 194.410156 200 187.5 "/>
<path style=" stroke:none;fill-rule:nonzero;fill:rgb(92.549133%,11.369324%,15.289307%);fill-opacity:1;" d="M 206.25 125 C 206.25 114.648438 197.851562 106.25 187.5 106.25 C 177.148438 106.25 168.75 114.648438 168.75 125 C 168.75 135.351562 177.148438 143.75 187.5 143.75 C 197.851562 143.75 206.25 135.351562 206.25 125 "/>
<path style=" stroke:none;fill-rule:nonzero;fill:rgb(92.549133%,11.369324%,15.289307%);fill-opacity:1;" d="M 156.25 218.75 C 156.25 208.398438 147.851562 200 137.5 200 C 127.148438 200 118.75 208.398438 118.75 218.75 C 118.75 229.101562 127.148438 237.5 137.5 237.5 C 147.851562 237.5 156.25 229.101562 156.25 218.75 "/>
<path style=" stroke:none;fill-rule:nonzero;fill:rgb(92.549133%,11.369324%,15.289307%);fill-opacity:1;" d="M 262.5 218.75 C 262.5 208.398438 254.101562 200 243.75 200 C 233.398438 200 225 208.398438 225 218.75 C 225 229.101562 233.398438 237.5 243.75 237.5 C 254.101562 237.5 262.5 229.101562 262.5 218.75 "/>
<path style=" stroke:none;fill-rule:nonzero;fill:rgb(92.549133%,11.369324%,15.289307%);fill-opacity:1;" d="M 122.484375 37.402344 C 117.308594 28.417969 105.835938 25.34375 96.875 30.542969 C 87.914062 35.71875 84.839844 47.167969 90.015625 56.152344 C 95.191406 65.113281 106.664062 68.1875 115.625 63.011719 C 124.585938 57.835938 127.660156 46.363281 122.484375 37.402344 "/>
<path style=" stroke:none;fill-rule:nonzero;fill:rgb(92.549133%,11.369324%,15.289307%);fill-opacity:1;" d="M 56.152344 90.015625 C 47.167969 84.839844 35.71875 87.914062 30.542969 96.875 C 25.34375 105.835938 28.417969 117.308594 37.402344 122.484375 C 46.363281 127.660156 57.835938 124.585938 63.011719 115.625 C 68.1875 106.664062 65.113281 95.191406 56.152344 90.015625 "/>
<path style=" stroke:none;fill-rule:nonzero;fill:rgb(92.549133%,11.369324%,15.289307%);fill-opacity:1;" d="M 25 168.75 C 14.648438 168.75 6.25 177.148438 6.25 187.5 C 6.25 197.851562 14.648438 206.25 25 206.25 C 35.351562 206.25 43.75 197.851562 43.75 187.5 C 43.75 177.148438 35.351562 168.75 25 168.75 "/>
<path style=" stroke:none;fill-rule:nonzero;fill:rgb(92.549133%,11.369324%,15.289307%);fill-opacity:1;" d="M 37.402344 252.515625 C 28.417969 257.691406 25.34375 269.164062 30.542969 278.125 C 35.71875 287.085938 47.167969 290.160156 56.152344 284.984375 C 65.113281 279.808594 68.1875 268.335938 63.011719 259.375 C 57.835938 250.414062 46.363281 247.339844 37.402344 252.515625 "/>
<path style=" stroke:none;fill-rule:nonzero;fill:rgb(92.549133%,11.369324%,15.289307%);fill-opacity:1;" d="M 90.015625 318.847656 C 84.839844 327.832031 87.914062 339.28125 96.875 344.457031 C 105.835938 349.65625 117.308594 346.582031 122.484375 337.597656 C 127.660156 328.636719 124.585938 317.164062 115.625 311.988281 C 106.664062 306.8125 95.191406 309.886719 90.015625 318.847656 "/>
<path style=" stroke:none;fill-rule:nonzero;fill:rgb(92.549133%,11.369324%,15.289307%);fill-opacity:1;" d="M 168.75 350 C 168.75 360.351562 177.148438 368.75 187.5 368.75 C 197.851562 368.75 206.25 360.351562 206.25 350 C 206.25 339.648438 197.851562 331.25 187.5 331.25 C 177.148438 331.25 168.75 339.648438 168.75 350 "/>
<path style=" stroke:none;fill-rule:nonzero;fill:rgb(92.549133%,11.369324%,15.289307%);fill-opacity:1;" d="M 252.515625 337.597656 C 257.691406 346.582031 269.164062 349.65625 278.125 344.457031 C 287.085938 339.28125 290.160156 327.832031 284.984375 318.847656 C 279.808594 309.886719 268.335938 306.8125 259.375 311.988281 C 250.414062 317.164062 247.339844 328.636719 252.515625 337.597656 "/>
<path style=" stroke:none;fill-rule:nonzero;fill:rgb(92.549133%,11.369324%,15.289307%);fill-opacity:1;" d="M 318.847656 284.984375 C 327.832031 290.160156 339.28125 287.085938 344.457031 278.125 C 349.65625 269.164062 346.582031 257.691406 337.597656 252.515625 C 328.636719 247.339844 317.164062 250.414062 311.988281 259.375 C 306.8125 268.335938 309.886719 279.808594 318.847656 284.984375 "/>
<path style=" stroke:none;fill-rule:nonzero;fill:rgb(92.549133%,11.369324%,15.289307%);fill-opacity:1;" d="M 350 206.25 C 360.351562 206.25 368.75 197.851562 368.75 187.5 C 368.75 177.148438 360.351562 168.75 350 168.75 C 339.648438 168.75 331.25 177.148438 331.25 187.5 C 331.25 197.851562 339.648438 206.25 350 206.25 "/>
<path style=" stroke:none;fill-rule:nonzero;fill:rgb(92.549133%,11.369324%,15.289307%);fill-opacity:1;" d="M 337.597656 122.484375 C 346.582031 117.308594 349.65625 105.835938 344.457031 96.875 C 339.28125 87.914062 327.832031 84.839844 318.847656 90.015625 C 309.886719 95.191406 306.8125 106.664062 311.988281 115.625 C 317.164062 124.585938 328.636719 127.660156 337.597656 122.484375 "/>
<path style=" stroke:none;fill-rule:nonzero;fill:rgb(92.549133%,11.369324%,15.289307%);fill-opacity:1;" d="M 284.984375 56.152344 C 290.160156 47.167969 287.085938 35.71875 278.125 30.542969 C 269.164062 25.34375 257.691406 28.417969 252.515625 37.402344 C 247.339844 46.363281 250.414062 57.835938 259.375 63.011719 C 268.335938 68.1875 279.808594 65.113281 284.984375 56.152344 "/>
<path style=" stroke:none;fill-rule:nonzero;fill:rgb(92.549133%,11.369324%,15.289307%);fill-opacity:1;" d="M 206.25 25 C 206.25 14.648438 197.851562 6.25 187.5 6.25 C 177.148438 6.25 168.75 14.648438 168.75 25 C 168.75 35.351562 177.148438 43.75 187.5 43.75 C 197.851562 43.75 206.25 35.351562 206.25 25 "/>
<path style=" stroke:none;fill-rule:nonzero;fill:rgb(12.939453%,11.369324%,11.369324%);fill-opacity:1;" d="M 187.5 100 C 173.707031 100 162.5 111.207031 162.5 125 C 162.5 138.792969 173.707031 150 187.5 150 C 190.941406 150 193.75 147.191406 193.75 143.75 C 193.75 140.308594 190.941406 137.5 187.5 137.5 C 180.613281 137.5 175 131.882812 175 125 C 175 118.113281 180.613281 112.5 187.5 112.5 C 194.382812 112.5 200 118.113281 200 125 C 200 126.441406 199.753906 127.855469 199.292969 129.199219 C 198.121094 132.445312 199.828125 136.011719 203.074219 137.183594 C 206.347656 138.328125 209.910156 136.621094 211.058594 133.375 C 212.011719 130.6875 212.5 127.878906 212.5 125 C 212.5 111.207031 201.292969 100 187.5 100 "/>
<path style=" stroke:none;fill-rule:nonzero;fill:rgb(12.939453%,11.369324%,11.369324%);fill-opacity:1;" d="M 293.554688 204.808594 L 298.558594 204.492188 C 297.386719 212.695312 295.238281 220.628906 292.1875 228.320312 L 288.011719 225.5625 C 285.132812 223.632812 281.25 224.4375 279.320312 227.320312 C 277.441406 230.199219 278.246094 234.058594 281.128906 236.011719 L 314.746094 258.128906 C 316.820312 259.496094 319.433594 259.496094 321.558594 258.179688 C 325.4375 255.6875 330.445312 255.566406 334.496094 257.933594 C 340.429688 261.375 342.503906 268.992188 339.0625 275 C 337.378906 277.878906 334.691406 280.003906 331.445312 280.808594 C 328.246094 281.6875 324.878906 281.25 321.996094 279.566406 C 317.945312 277.246094 315.503906 272.875 315.746094 268.238281 C 315.820312 265.746094 314.5 263.5 312.304688 262.378906 L 276.316406 244.3125 C 273.191406 242.820312 269.433594 244.066406 267.945312 247.117188 C 266.382812 250.195312 267.625 253.929688 270.679688 255.492188 L 275.195312 257.738281 C 270.066406 264.183594 264.183594 270.066406 257.738281 275.195312 L 255.492188 270.679688 C 253.929688 267.625 250.195312 266.382812 247.117188 267.945312 C 244.066406 269.433594 242.820312 273.191406 244.3125 276.316406 L 262.378906 312.304688 C 263.5 314.5 265.699219 315.746094 268.238281 315.746094 C 272.875 315.503906 277.246094 317.945312 279.566406 321.996094 C 281.25 324.878906 281.6875 328.246094 280.808594 331.445312 C 280.003906 334.691406 277.878906 337.378906 275 339.0625 C 268.992188 342.503906 261.375 340.429688 257.933594 334.496094 C 255.566406 330.445312 255.6875 325.4375 258.179688 321.558594 C 259.496094 319.433594 259.496094 316.820312 258.128906 314.746094 L 236.011719 281.128906 C 234.058594 278.246094 230.199219 277.441406 227.320312 279.320312 C 224.4375 281.25 223.632812 285.132812 225.5625 288.011719 L 228.320312 292.1875 C 220.628906 295.238281 212.695312 297.386719 204.492188 298.558594 L 204.808594 293.554688 C 205.003906 290.113281 202.367188 287.132812 198.949219 286.9375 C 195.507812 286.621094 192.503906 289.378906 192.308594 292.820312 L 189.941406 333.007812 C 189.820312 335.425781 191.136719 337.742188 193.308594 338.941406 C 197.4375 341.0625 200 345.3125 200 350 C 200 356.882812 194.382812 362.5 187.5 362.5 C 180.613281 362.5 175 356.882812 175 350 C 175 345.3125 177.5625 341.0625 181.6875 338.941406 C 183.863281 337.742188 185.179688 335.425781 185.058594 333.007812 L 182.691406 292.820312 C 182.496094 289.378906 179.441406 286.621094 176.050781 286.9375 C 172.632812 287.132812 169.996094 290.113281 170.191406 293.554688 L 170.507812 298.558594 C 162.304688 297.386719 154.371094 295.238281 146.679688 292.1875 L 149.4375 288.011719 C 151.367188 285.132812 150.5625 281.25 147.679688 279.320312 C 144.800781 277.441406 140.941406 278.246094 138.988281 281.128906 L 116.871094 314.746094 C 115.503906 316.820312 115.503906 319.433594 116.820312 321.558594 C 119.3125 325.4375 119.433594 330.445312 117.066406 334.496094 C 113.621094 340.429688 106.003906 342.503906 100 339.0625 C 97.117188 337.378906 94.996094 334.691406 94.1875 331.445312 C 93.308594 328.246094 93.75 324.878906 95.433594 321.996094 C 97.753906 317.945312 102.125 315.503906 106.761719 315.746094 C 109.300781 315.746094 111.5 314.5 112.621094 312.304688 L 130.6875 276.316406 C 132.175781 273.191406 130.933594 269.433594 127.878906 267.945312 C 124.804688 266.382812 121.070312 267.625 119.507812 270.679688 L 117.261719 275.195312 C 110.816406 270.066406 104.929688 264.183594 99.804688 257.738281 L 104.320312 255.492188 C 107.371094 253.929688 108.617188 250.195312 107.054688 247.117188 C 105.566406 244.066406 101.804688 242.820312 98.679688 244.3125 L 62.695312 262.378906 C 60.496094 263.5 59.179688 265.746094 59.253906 268.238281 C 59.496094 272.875 57.054688 277.246094 53.003906 279.566406 C 50.121094 281.25 46.753906 281.6875 43.554688 280.808594 C 40.308594 280.003906 37.621094 277.878906 35.9375 275 C 32.496094 268.992188 34.570312 261.375 40.503906 257.933594 C 44.554688 255.566406 49.558594 255.6875 53.441406 258.179688 C 55.566406 259.496094 58.179688 259.496094 60.253906 258.128906 L 93.871094 236.011719 C 96.753906 234.058594 97.558594 230.199219 95.679688 227.320312 C 93.75 224.4375 89.867188 223.632812 86.988281 225.5625 L 82.8125 228.320312 C 79.761719 220.628906 77.613281 212.695312 76.441406 204.492188 L 81.445312 204.808594 C 84.8125 205.003906 87.867188 202.367188 88.0625 198.949219 C 88.257812 195.507812 85.621094 192.503906 82.179688 192.308594 L 41.992188 189.941406 C 39.574219 189.746094 37.257812 191.136719 36.058594 193.308594 C 33.9375 197.4375 29.6875 200 25 200 C 18.117188 200 12.5 194.382812 12.5 187.5 C 12.5 180.613281 18.117188 175 25 175 C 29.6875 175 33.9375 177.5625 36.058594 181.6875 C 37.257812 183.863281 39.574219 185.179688 41.992188 185.058594 L 82.179688 182.691406 C 85.621094 182.496094 88.257812 179.492188 88.0625 176.050781 C 87.867188 172.632812 84.8125 169.871094 81.445312 170.191406 L 76.441406 170.507812 C 77.613281 162.304688 79.761719 154.371094 82.8125 146.679688 L 86.988281 149.4375 C 88.0625 150.121094 89.257812 150.511719 90.429688 150.511719 C 92.429688 150.511719 94.433594 149.488281 95.679688 147.679688 C 97.558594 144.800781 96.753906 140.941406 93.871094 138.988281 L 60.253906 116.871094 C 58.179688 115.503906 55.566406 115.503906 53.441406 116.820312 C 49.558594 119.3125 44.554688 119.433594 40.503906 117.066406 C 34.570312 113.621094 32.496094 106.003906 35.9375 100 C 37.621094 97.117188 40.308594 94.996094 43.554688 94.1875 C 46.753906 93.308594 50.121094 93.75 53.003906 95.433594 C 57.054688 97.753906 59.496094 102.125 59.253906 106.761719 C 59.179688 109.253906 60.496094 111.5 62.695312 112.621094 L 98.679688 130.6875 C 101.804688 132.175781 105.566406 130.933594 107.054688 127.878906 C 108.617188 124.804688 107.371094 121.070312 104.320312 119.507812 L 99.804688 117.261719 C 104.929688 110.816406 110.816406 104.929688 117.261719 99.804688 L 119.507812 104.320312 C 120.554688 106.492188 122.800781 107.738281 125.074219 107.738281 C 126 107.738281 127 107.566406 127.878906 107.054688 C 130.933594 105.566406 132.175781 101.804688 130.6875 98.679688 L 112.621094 62.695312 C 111.5 60.496094 109.300781 59.132812 106.761719 59.253906 C 102.125 59.496094 97.753906 57.054688 95.433594 53.003906 C 93.75 50.121094 93.308594 46.753906 94.1875 43.554688 C 94.996094 40.308594 97.117188 37.621094 100 35.9375 C 105.933594 32.496094 113.621094 34.570312 117.066406 40.503906 C 119.433594 44.554688 119.3125 49.558594 116.820312 53.441406 C 115.503906 55.566406 115.503906 58.179688 116.871094 60.253906 L 138.988281 93.871094 C 140.941406 96.753906 144.800781 97.558594 147.679688 95.679688 C 150.5625 93.75 151.367188 89.867188 149.4375 86.988281 L 146.679688 82.8125 C 154.371094 79.761719 162.304688 77.613281 170.507812 76.441406 L 170.191406 81.445312 C 169.996094 84.886719 172.632812 87.867188 176.050781 88.0625 C 179.441406 88.257812 182.496094 85.621094 182.691406 82.175781 L 185.058594 41.992188 C 185.179688 39.574219 183.863281 37.253906 181.6875 36.058594 C 177.5625 33.9375 175 29.6875 175 25 C 175 18.117188 180.613281 12.5 187.5 12.5 C 194.382812 12.5 200 18.117188 200 25 C 200 29.6875 197.4375 33.9375 193.308594 36.058594 C 191.136719 37.253906 189.820312 39.574219 189.941406 41.992188 L 192.308594 82.175781 C 192.503906 85.496094 195.238281 88.0625 198.558594 88.0625 L 198.949219 88.0625 C 202.367188 87.867188 205.003906 84.886719 204.808594 81.445312 L 204.492188 76.441406 C 212.695312 77.613281 220.628906 79.761719 228.320312 82.8125 L 225.5625 86.988281 C 223.632812 89.867188 224.4375 93.75 227.320312 95.679688 C 230.199219 97.558594 234.058594 96.753906 236.011719 93.871094 L 258.128906 60.253906 C 259.496094 58.179688 259.496094 55.566406 258.179688 53.441406 C 255.6875 49.558594 255.566406 44.554688 257.933594 40.503906 C 261.375 34.570312 268.992188 32.496094 275 35.9375 C 277.878906 37.621094 280.003906 40.308594 280.808594 43.554688 C 281.6875 46.753906 281.25 50.121094 279.566406 53.003906 C 277.246094 57.054688 272.875 59.496094 268.238281 59.253906 C 265.699219 59.132812 263.5 60.496094 262.378906 62.695312 L 244.3125 98.679688 C 242.820312 101.804688 244.066406 105.566406 247.117188 107.054688 C 247.996094 107.566406 249 107.738281 249.925781 107.738281 C 252.195312 107.738281 254.441406 106.492188 255.492188 104.320312 L 257.738281 99.804688 C 264.183594 104.929688 270.066406 110.816406 275.195312 117.261719 L 270.679688 119.507812 C 267.625 121.070312 266.382812 124.804688 267.945312 127.878906 C 269.433594 130.933594 273.191406 132.175781 276.316406 130.6875 L 312.304688 112.621094 C 314.5 111.5 315.820312 109.253906 315.746094 106.761719 C 315.503906 102.125 317.945312 97.753906 321.996094 95.433594 C 324.878906 93.75 328.246094 93.308594 331.445312 94.1875 C 334.691406 94.996094 337.378906 97.117188 339.0625 100 C 342.503906 106.003906 340.429688 113.621094 334.496094 117.066406 C 330.445312 119.433594 325.4375 119.3125 321.558594 116.820312 C 319.433594 115.503906 316.820312 115.503906 314.746094 116.871094 L 281.128906 138.988281 C 278.246094 140.941406 277.441406 144.800781 279.320312 147.679688 C 280.566406 149.488281 282.566406 150.511719 284.570312 150.511719 C 285.742188 150.511719 286.9375 150.121094 288.011719 149.4375 L 292.1875 146.679688 C 295.238281 154.371094 297.386719 162.304688 298.558594 170.507812 L 293.554688 170.191406 C 290.113281 169.945312 287.132812 172.632812 286.9375 176.050781 C 286.742188 179.492188 289.378906 182.496094 292.820312 182.691406 L 333.007812 185.058594 C 335.425781 185.253906 337.742188 183.863281 338.941406 181.6875 C 341.0625 177.5625 345.3125 175 350 175 C 356.882812 175 362.5 180.613281 362.5 187.5 C 362.5 194.382812 356.882812 200 350 200 C 345.3125 200 341.0625 197.4375 338.941406 193.308594 C 337.742188 191.136719 335.425781 189.746094 333.007812 189.941406 L 292.820312 192.308594 C 289.378906 192.503906 286.742188 195.507812 286.9375 198.949219 C 287.132812 202.367188 290.113281 205.003906 293.554688 204.808594 Z M 330.054688 202.613281 C 334.742188 208.8125 342.066406 212.5 350 212.5 C 363.816406 212.5 375 201.316406 375 187.5 C 375 173.679688 363.816406 162.5 350 162.5 C 342.066406 162.5 334.742188 166.1875 330.054688 172.386719 L 311.253906 171.238281 C 309.886719 160.300781 307.054688 149.753906 302.808594 139.695312 L 318.554688 129.320312 C 325.683594 132.300781 333.863281 131.882812 340.746094 127.878906 C 352.683594 120.996094 356.761719 105.6875 349.878906 93.75 C 342.992188 81.8125 327.683594 77.683594 315.746094 84.617188 C 308.863281 88.550781 304.371094 95.433594 303.441406 103.050781 L 286.570312 111.570312 C 279.929688 102.808594 272.191406 95.066406 263.425781 88.425781 L 271.949219 71.558594 C 279.566406 70.628906 286.449219 66.136719 290.378906 59.253906 C 297.3125 47.3125 293.1875 32.007812 281.25 25.121094 C 269.3125 18.238281 254.003906 22.3125 247.117188 34.253906 C 243.113281 41.136719 242.699219 49.316406 245.679688 56.445312 L 235.300781 72.191406 C 225.242188 67.945312 214.695312 65.113281 203.757812 63.746094 L 202.613281 44.945312 C 208.8125 40.257812 212.5 32.933594 212.5 25 C 212.5 11.179688 201.316406 0 187.5 0 C 173.679688 0 162.5 11.179688 162.5 25 C 162.5 32.933594 166.1875 40.257812 172.386719 44.945312 L 171.238281 63.746094 C 160.300781 65.113281 149.753906 67.945312 139.695312 72.191406 L 129.320312 56.445312 C 132.300781 49.316406 131.882812 41.136719 127.878906 34.253906 C 120.996094 22.3125 105.6875 18.238281 93.75 25.121094 C 81.8125 32.007812 77.6875 47.3125 84.617188 59.253906 C 88.550781 66.136719 95.433594 70.628906 103.050781 71.558594 L 111.570312 88.425781 C 102.808594 95.066406 95.066406 102.808594 88.425781 111.570312 L 71.558594 103.050781 C 70.628906 95.433594 66.136719 88.550781 59.253906 84.617188 C 47.316406 77.683594 32.007812 81.8125 25.121094 93.75 C 18.238281 105.6875 22.3125 120.996094 34.253906 127.878906 C 41.136719 131.882812 49.316406 132.300781 56.445312 129.320312 L 72.191406 139.695312 C 67.945312 149.753906 65.113281 160.300781 63.746094 171.238281 L 44.945312 172.386719 C 40.257812 166.1875 32.933594 162.5 25 162.5 C 11.183594 162.5 0 173.679688 0 187.5 C 0 201.316406 11.183594 212.5 25 212.5 C 32.933594 212.5 40.257812 208.8125 44.945312 202.613281 L 63.746094 203.757812 C 65.113281 214.695312 67.945312 225.242188 72.191406 235.300781 L 56.445312 245.679688 C 49.316406 242.699219 41.136719 243.113281 34.253906 247.117188 C 22.3125 254.003906 18.238281 269.3125 25.121094 281.25 C 29.761719 289.257812 38.183594 293.75 46.800781 293.75 C 51.050781 293.75 55.371094 292.699219 59.253906 290.378906 C 66.136719 286.449219 70.628906 279.566406 71.558594 271.949219 L 88.425781 263.425781 C 95.066406 272.191406 102.808594 279.929688 111.570312 286.570312 L 103.050781 303.441406 C 95.433594 304.371094 88.550781 308.863281 84.617188 315.746094 C 77.6875 327.683594 81.8125 342.992188 93.75 349.878906 C 97.679688 352.125 101.929688 353.246094 106.175781 353.246094 C 114.867188 353.246094 123.242188 348.753906 127.878906 340.746094 C 131.882812 333.863281 132.300781 325.683594 129.320312 318.554688 L 139.695312 302.808594 C 149.753906 307.054688 160.300781 309.886719 171.238281 311.253906 L 172.386719 330.054688 C 166.1875 334.742188 162.5 342.066406 162.5 350 C 162.5 363.816406 173.679688 375 187.5 375 C 201.316406 375 212.5 363.816406 212.5 350 C 212.5 342.066406 208.8125 334.742188 202.613281 330.054688 L 203.757812 311.253906 C 214.695312 309.886719 225.242188 307.054688 235.300781 302.808594 L 245.679688 318.554688 C 242.699219 325.683594 243.113281 333.863281 247.117188 340.746094 C 251.757812 348.753906 260.132812 353.246094 268.824219 353.246094 C 273.070312 353.246094 277.320312 352.125 281.25 349.878906 C 293.1875 342.992188 297.3125 327.683594 290.378906 315.746094 C 286.449219 308.863281 279.566406 304.371094 271.949219 303.441406 L 263.425781 286.570312 C 272.191406 279.929688 279.929688 272.191406 286.570312 263.425781 L 303.441406 271.949219 C 304.371094 279.566406 308.863281 286.449219 315.746094 290.378906 C 319.675781 292.699219 323.949219 293.75 328.199219 293.75 C 336.816406 293.75 345.238281 289.257812 349.878906 281.25 C 356.761719 269.3125 352.683594 254.003906 340.746094 247.117188 C 333.863281 243.113281 325.683594 242.699219 318.554688 245.679688 L 302.808594 235.300781 C 307.054688 225.242188 309.886719 214.695312 311.253906 203.757812 L 330.054688 202.613281 "/>
<path style=" stroke:none;fill-rule:nonzero;fill:rgb(12.939453%,11.369324%,11.369324%);fill-opacity:1;" d="M 153.027344 206.519531 C 149.78125 207.691406 148.09375 211.277344 149.265625 214.527344 C 149.753906 215.867188 150 217.285156 150 218.75 C 150 225.632812 144.382812 231.25 137.5 231.25 C 130.613281 231.25 125 225.632812 125 218.75 C 125 211.863281 130.613281 206.25 137.5 206.25 C 140.941406 206.25 143.75 203.441406 143.75 200 C 143.75 196.558594 140.941406 193.75 137.5 193.75 C 123.707031 193.75 112.5 204.957031 112.5 218.75 C 112.5 232.542969 123.707031 243.75 137.5 243.75 C 151.292969 243.75 162.5 232.542969 162.5 218.75 C 162.5 215.84375 162.011719 213.011719 161.035156 210.300781 C 159.863281 207.054688 156.273438 205.347656 153.027344 206.519531 "/>
<path style=" stroke:none;fill-rule:nonzero;fill:rgb(12.939453%,11.369324%,11.369324%);fill-opacity:1;" d="M 243.75 193.75 C 229.957031 193.75 218.75 204.957031 218.75 218.75 C 218.75 221.753906 219.285156 224.707031 220.335938 227.515625 C 221.558594 230.738281 225.171875 232.371094 228.367188 231.175781 C 231.617188 229.957031 233.25 226.367188 232.03125 223.121094 C 231.519531 221.726562 231.25 220.261719 231.25 218.75 C 231.25 211.863281 236.863281 206.25 243.75 206.25 C 250.632812 206.25 256.25 211.863281 256.25 218.75 C 256.25 225.632812 250.632812 231.25 243.75 231.25 C 240.308594 231.25 237.5 234.058594 237.5 237.5 C 237.5 240.941406 240.308594 243.75 243.75 243.75 C 257.542969 243.75 268.75 232.542969 268.75 218.75 C 268.75 204.957031 257.542969 193.75 243.75 193.75 "/>
<path style=" stroke:none;fill-rule:nonzero;fill:rgb(12.939453%,11.369324%,11.369324%);fill-opacity:1;" d="M 131.25 150 C 134.691406 150 137.5 152.808594 137.5 156.25 C 137.5 159.691406 134.691406 162.5 131.25 162.5 C 127.808594 162.5 125 159.691406 125 156.25 C 125 152.808594 127.808594 150 131.25 150 Z M 131.25 175 C 141.601562 175 150 166.601562 150 156.25 C 150 145.898438 141.601562 137.5 131.25 137.5 C 120.898438 137.5 112.5 145.898438 112.5 156.25 C 112.5 166.601562 120.898438 175 131.25 175 "/>
<path style=" stroke:none;fill-rule:nonzero;fill:rgb(12.939453%,11.369324%,11.369324%);fill-opacity:1;" d="M 193.75 262.5 C 190.308594 262.5 187.5 259.691406 187.5 256.25 C 187.5 252.808594 190.308594 250 193.75 250 C 197.191406 250 200 252.808594 200 256.25 C 200 259.691406 197.191406 262.5 193.75 262.5 Z M 193.75 237.5 C 183.398438 237.5 175 245.898438 175 256.25 C 175 266.601562 183.398438 275 193.75 275 C 204.101562 275 212.5 266.601562 212.5 256.25 C 212.5 245.898438 204.101562 237.5 193.75 237.5 "/>
<path style=" stroke:none;fill-rule:nonzero;fill:rgb(12.939453%,11.369324%,11.369324%);fill-opacity:1;" d="M 243.75 143.75 C 247.191406 143.75 250 146.558594 250 150 C 250 153.441406 247.191406 156.25 243.75 156.25 C 240.308594 156.25 237.5 153.441406 237.5 150 C 237.5 146.558594 240.308594 143.75 243.75 143.75 Z M 243.75 168.75 C 254.101562 168.75 262.5 160.351562 262.5 150 C 262.5 139.648438 254.101562 131.25 243.75 131.25 C 233.398438 131.25 225 139.648438 225 150 C 225 160.351562 233.398438 168.75 243.75 168.75 "/>
<path style=" stroke:none;fill-rule:nonzero;fill:rgb(12.939453%,11.369324%,11.369324%);fill-opacity:1;" d="M 181.25 187.5 C 181.25 184.058594 184.058594 181.25 187.5 181.25 C 190.941406 181.25 193.75 184.058594 193.75 187.5 C 193.75 190.941406 190.941406 193.75 187.5 193.75 C 184.058594 193.75 181.25 190.941406 181.25 187.5 Z M 206.25 187.5 C 206.25 177.148438 197.851562 168.75 187.5 168.75 C 177.148438 168.75 168.75 177.148438 168.75 187.5 C 168.75 197.851562 177.148438 206.25 187.5 206.25 C 197.851562 206.25 206.25 197.851562 206.25 187.5 "/>
</g>
</svg>
