<?xml version="1.0" encoding="UTF-8"?>
<svg xmlns="http://www.w3.org/2000/svg" xmlns:xlink="http://www.w3.org/1999/xlink" width="375pt" height="374.999991pt" viewBox="0 0 375 374.999991" version="1.2">
<defs>
<clipPath id="clip1">
  <path d="M 200 24.476562 L 365 24.476562 L 365 219 L 200 219 Z M 200 24.476562 "/>
</clipPath>
<clipPath id="clip2">
  <path d="M 0 50 L 249 50 L 249 268.976562 L 0 268.976562 Z M 0 50 "/>
</clipPath>
</defs>
<g id="surface1">
<path style=" stroke:none;fill-rule:nonzero;fill:rgb(100%,100%,100%);fill-opacity:1;" d="M 51.152344 217.652344 C 48.90625 217.652344 46.886719 216.230469 46.117188 214.121094 C 45.625 212.773438 45.6875 211.316406 46.289062 210.015625 C 46.894531 208.714844 47.964844 207.726562 49.3125 207.238281 C 49.746094 207.074219 94.964844 189.359375 146.554688 113.308594 C 167.175781 82.910156 172.183594 59.472656 160.664062 47.304688 C 155.6875 42.050781 147.71875 39.15625 138.226562 39.15625 C 129.460938 39.15625 120.371094 41.617188 113.289062 45.910156 C 91.886719 58.882812 68.613281 68.378906 56.644531 72.882812 C 48.410156 75.984375 40.570312 78.582031 34.578125 80.199219 C 29.757812 81.5 26.46875 82.105469 24.226562 82.105469 C 22.507812 82.105469 21.269531 81.773438 20.085938 80.988281 C 17.621094 79.355469 16.941406 76.019531 18.570312 73.550781 C 19.566406 72.042969 21.238281 71.140625 23.042969 71.140625 C 23.582031 71.140625 24.117188 71.21875 24.625 71.382812 C 31.335938 71.207031 74.488281 56.878906 107.738281 36.722656 C 116.480469 31.425781 127.609375 28.386719 138.273438 28.386719 C 150.683594 28.386719 161.398438 32.480469 168.441406 39.917969 C 177.332031 49.304688 187.460938 72.105469 155.421875 119.34375 C 101.460938 198.886719 54.941406 216.609375 52.988281 217.324219 C 52.394531 217.542969 51.777344 217.652344 51.152344 217.652344 "/>
<path style=" stroke:none;fill-rule:nonzero;fill:rgb(5.099487%,17.649841%,27.449036%);fill-opacity:1;" d="M 138.277344 26.058594 L 138.277344 30.714844 L 138.277344 26.058594 C 127.199219 26.058594 115.628906 29.21875 106.535156 34.730469 C 74.03125 54.433594 32.257812 68.515625 24.894531 69.039062 C 24.292969 68.886719 23.671875 68.8125 23.042969 68.8125 C 20.453125 68.8125 18.058594 70.105469 16.632812 72.265625 C 14.300781 75.808594 15.273438 80.589844 18.796875 82.929688 C 20.375 83.972656 22.046875 84.433594 24.226562 84.433594 C 26.710938 84.433594 30.089844 83.820312 35.183594 82.445312 C 41.246094 80.8125 49.160156 78.1875 57.460938 75.0625 C 69.507812 70.527344 92.929688 60.96875 114.492188 47.902344 C 121.222656 43.824219 129.875 41.480469 138.226562 41.484375 C 147.074219 41.484375 154.445312 44.121094 158.980469 48.910156 C 169.511719 60.035156 164.285156 83.027344 144.636719 112 C 118.105469 151.109375 93.453125 174.289062 77.445312 186.847656 C 59.882812 200.625 48.585938 205.023438 48.472656 205.066406 C 44.539062 206.503906 42.480469 210.929688 43.929688 214.917969 C 45.035156 217.945312 47.933594 219.980469 51.152344 219.980469 C 52.046875 219.980469 52.933594 219.824219 53.78125 219.511719 C 55.769531 218.785156 102.96875 200.808594 157.339844 120.652344 C 190.300781 72.066406 179.5 48.210938 170.125 38.3125 C 162.640625 30.410156 151.332031 26.058594 138.277344 26.058594 Z M 138.273438 30.714844 C 149.085938 30.710938 159.585938 33.949219 166.753906 41.519531 C 175.164062 50.398438 184.625 72.148438 153.496094 118.035156 C 99.933594 197 54.113281 214.433594 52.191406 215.136719 C 51.847656 215.261719 51.496094 215.320312 51.152344 215.320312 C 49.914062 215.320312 48.746094 214.554688 48.296875 213.324219 C 47.726562 211.746094 48.535156 210 50.105469 209.425781 C 50.558594 209.257812 96.15625 191.746094 148.476562 114.617188 C 169.777344 83.21875 174.699219 58.746094 162.351562 45.703125 C 156.5 39.527344 147.5625 36.828125 138.226562 36.828125 C 129.042969 36.824219 119.476562 39.4375 112.085938 43.917969 C 90.832031 56.800781 67.714844 66.230469 55.828125 70.707031 C 47.664062 73.777344 39.898438 76.351562 33.972656 77.949219 C 28.914062 79.316406 26.023438 79.777344 24.226562 79.777344 C 22.699219 79.777344 21.964844 79.445312 21.363281 79.046875 C 19.96875 78.121094 19.585938 76.234375 20.507812 74.832031 C 21.09375 73.949219 22.058594 73.46875 23.042969 73.46875 C 23.433594 73.46875 23.828125 73.542969 24.199219 73.699219 C 24.292969 73.707031 24.394531 73.710938 24.507812 73.710938 C 31.613281 73.710938 75.269531 59.125 108.9375 38.714844 C 117.203125 33.707031 127.878906 30.714844 138.273438 30.714844 "/>
<path style=" stroke:none;fill-rule:nonzero;fill:rgb(100%,100%,100%);fill-opacity:1;" d="M 235.859375 215.960938 C 233.613281 215.960938 231.589844 214.539062 230.824219 212.429688 C 229.8125 209.648438 231.246094 206.558594 234.019531 205.546875 C 234.453125 205.378906 279.675781 187.667969 331.261719 111.617188 C 351.878906 81.21875 356.890625 57.777344 345.371094 45.613281 C 340.394531 40.359375 332.425781 37.460938 322.933594 37.460938 C 314.167969 37.460938 305.078125 39.925781 297.996094 44.21875 C 276.578125 57.203125 253.316406 66.691406 241.355469 71.191406 C 233.109375 74.292969 225.273438 76.890625 219.28125 78.507812 C 214.460938 79.808594 211.171875 80.414062 208.933594 80.414062 C 207.210938 80.414062 205.976562 80.078125 204.789062 79.296875 C 202.324219 77.65625 201.648438 74.320312 203.28125 71.855469 C 204.273438 70.347656 205.945312 69.449219 207.75 69.449219 C 208.292969 69.449219 208.824219 69.527344 209.332031 69.6875 C 216.039062 69.515625 259.195312 55.1875 292.445312 35.03125 C 301.1875 29.734375 312.316406 26.695312 322.984375 26.695312 C 335.394531 26.695312 346.105469 30.789062 353.148438 38.222656 C 362.039062 47.613281 372.167969 70.417969 340.128906 117.652344 C 286.136719 197.253906 239.644531 214.921875 237.691406 215.632812 C 237.105469 215.847656 236.484375 215.960938 235.859375 215.960938 "/>
<g clip-path="url(#clip1)" clip-rule="nonzero">
<path style=" stroke:none;fill-rule:nonzero;fill:rgb(5.099487%,17.649841%,27.449036%);fill-opacity:1;" d="M 322.988281 24.367188 L 322.988281 29.023438 L 322.984375 24.367188 C 311.902344 24.367188 300.335938 27.53125 291.242188 33.042969 C 258.738281 52.742188 216.964844 66.824219 209.601562 67.347656 C 208.996094 67.195312 208.378906 67.121094 207.75 67.121094 C 205.160156 67.121094 202.761719 68.414062 201.335938 70.578125 C 199 74.105469 199.972656 78.890625 203.503906 81.238281 C 205.078125 82.28125 206.753906 82.742188 208.933594 82.742188 C 211.414062 82.742188 214.796875 82.128906 219.886719 80.757812 C 225.941406 79.121094 233.855469 76.5 242.167969 73.371094 C 254.207031 68.839844 277.625 59.289062 299.195312 46.210938 C 305.925781 42.132812 314.582031 39.792969 322.933594 39.792969 C 331.78125 39.792969 339.152344 42.429688 343.683594 47.21875 C 354.21875 58.339844 348.992188 81.335938 329.339844 110.308594 C 302.8125 149.417969 278.164062 172.597656 262.15625 185.15625 C 244.59375 198.9375 233.292969 203.332031 233.179688 203.375 C 229.242188 204.8125 227.1875 209.238281 228.640625 213.226562 C 229.738281 216.253906 232.640625 218.289062 235.855469 218.289062 C 236.757812 218.289062 237.644531 218.128906 238.496094 217.816406 C 240.46875 217.097656 287.640625 199.175781 342.050781 118.960938 C 375.003906 70.378906 364.203125 46.519531 354.832031 36.625 C 347.347656 28.71875 336.039062 24.367188 322.988281 24.367188 Z M 322.980469 29.023438 C 333.789062 29.023438 344.289062 32.257812 351.460938 39.828125 C 359.871094 48.707031 369.332031 70.457031 338.207031 116.34375 C 284.644531 195.308594 238.820312 212.742188 236.894531 213.445312 C 236.554688 213.570312 236.203125 213.632812 235.855469 213.632812 C 234.621094 213.632812 233.457031 212.867188 233.003906 211.632812 C 232.429688 210.054688 233.238281 208.308594 234.8125 207.734375 C 235.265625 207.566406 280.867188 190.054688 333.183594 112.925781 C 354.476562 81.527344 359.40625 57.054688 347.054688 44.015625 C 341.207031 37.835938 332.269531 35.136719 322.933594 35.136719 C 313.75 35.136719 304.179688 37.746094 296.792969 42.230469 C 275.542969 55.109375 252.425781 64.539062 240.535156 69.011719 C 232.363281 72.085938 224.605469 74.660156 218.675781 76.261719 C 213.617188 77.625 210.726562 78.085938 208.933594 78.085938 C 207.40625 78.085938 206.671875 77.753906 206.070312 77.355469 C 204.675781 76.429688 204.289062 74.542969 205.21875 73.140625 C 205.800781 72.257812 206.765625 71.777344 207.75 71.777344 C 208.140625 71.777344 208.535156 71.851562 208.90625 72.007812 C 209 72.015625 209.101562 72.019531 209.214844 72.019531 C 216.324219 72.019531 259.980469 57.433594 293.648438 37.023438 C 301.910156 32.019531 312.585938 29.027344 322.980469 29.023438 "/>
</g>
<path style=" stroke:none;fill-rule:nonzero;fill:rgb(32.548523%,70.979309%,91.369629%);fill-opacity:1;" d="M 217.867188 67.238281 C 200.285156 72.605469 168.460938 76.253906 153.132812 70.726562 C 152.421875 70.46875 151.605469 70.527344 150.816406 70.378906 C 132 66.902344 101.25 51.609375 81.164062 52.566406 C 51.199219 53.992188 11.058594 76.171875 11.058594 76.171875 C 11.058594 76.171875 3.621094 94.492188 3.621094 106.019531 C 3.621094 117.550781 0.71875 151.867188 3.621094 162.621094 C 7.109375 175.546875 33.269531 267.429688 90.46875 266.734375 C 124.640625 266.324219 203.25 239.882812 245.949219 216.074219 C 250.308594 182.535156 210.953125 140.953125 217.867188 67.238281 "/>
<g clip-path="url(#clip2)" clip-rule="nonzero">
<path style="fill:none;stroke-width:246.785;stroke-linecap:round;stroke-linejoin:round;stroke:rgb(5.099487%,17.649841%,27.449036%);stroke-opacity:1;stroke-miterlimit:10;" d="M 13815.295962 13767.459812 C 12881.807235 13482.987906 11192.153233 13289.613262 10378.331912 13582.573777 C 10340.585867 13596.238366 10297.240134 13593.132778 10255.346172 13601.000269 C 9256.320356 13785.265186 7623.700214 14595.823784 6557.270746 14545.099172 C 4966.33717 14469.529852 2835.137401 13293.961086 2835.137401 13293.961086 C 2835.137401 13293.961086 2440.2557 12322.947082 2440.2557 11711.974305 C 2440.2557 11100.794488 2286.160582 9281.954824 2440.2557 8711.975815 C 2625.460195 8026.882993 4014.390212 3156.906149 7051.287664 3193.759133 C 8865.586572 3215.498252 13039.220686 4616.946822 15306.264737 5878.850948 C 15537.718508 7656.489804 13448.205305 9860.422442 13815.295962 13767.459812 Z M 13815.295962 13767.459812 " transform="matrix(0.0188348,0,0,-0.0188672,-42.340524,326.991658)"/>
</g>
<path style=" stroke:none;fill-rule:nonzero;fill:rgb(15.689087%,66.268921%,90.589905%);fill-opacity:1;" d="M 214.300781 72.042969 C 197.472656 77.179688 167.011719 80.667969 152.339844 75.378906 C 151.65625 75.132812 150.875 75.1875 150.121094 75.046875 C 137.019531 72.625 117.875 64.226562 101.007812 60.171875 C 101.007812 60.171875 56.761719 263.113281 241.179688 214.503906 C 245.351562 182.402344 207.683594 142.597656 214.300781 72.042969 "/>
<path style="fill:none;stroke-width:246.785;stroke-linecap:round;stroke-linejoin:round;stroke:rgb(5.099487%,17.649841%,27.449036%);stroke-opacity:1;stroke-miterlimit:10;" d="M 8668.353118 12743.236725 C 7832.133045 13027.915671 6924.776195 13480.503435 6237.881135 13447.998275 C 5578.362328 13416.735351 4818.463928 13127.501542 4159.567308 12843.650753 " transform="matrix(0.0188348,0,0,-0.0188672,-42.340524,326.991658)"/>
<path style="fill:none;stroke-width:166.662003;stroke-linecap:round;stroke-linejoin:round;stroke:rgb(5.099487%,17.649841%,27.449036%);stroke-opacity:1;stroke-miterlimit:4;" d="M 5193.435627 3850.48758 C 5251.506466 3820.673931 5312.066054 3798.106654 5374.906997 3781.129437 " transform="matrix(0.0188348,0,0,-0.0188672,-42.340524,326.991658)"/>
<path style=" stroke:none;fill-rule:nonzero;fill:rgb(5.099487%,17.649841%,27.449036%);fill-opacity:1;" d="M 66.316406 258.082031 C 67.289062 258.089844 68.390625 258.070312 69.621094 258.023438 C 70.351562 257.996094 71.449219 257.945312 72.914062 257.867188 C 73.359375 257.84375 73.691406 257.824219 73.914062 257.8125 C 74.121094 257.804688 74.316406 257.753906 74.507812 257.664062 C 74.695312 257.574219 74.859375 257.453125 74.996094 257.296875 C 75.136719 257.140625 75.242188 256.96875 75.3125 256.769531 C 75.378906 256.574219 75.410156 256.371094 75.398438 256.164062 C 75.386719 255.957031 75.339844 255.757812 75.25 255.570312 C 75.160156 255.378906 75.039062 255.214844 74.882812 255.078125 C 74.730469 254.9375 74.554688 254.832031 74.355469 254.761719 C 74.160156 254.691406 73.960938 254.664062 73.75 254.671875 C 73.527344 254.683594 73.195312 254.703125 72.75 254.726562 C 71.300781 254.804688 70.21875 254.855469 69.5 254.882812 C 68.320312 254.925781 67.265625 254.945312 66.339844 254.9375 C 66.132812 254.9375 65.933594 254.976562 65.738281 255.054688 C 65.546875 255.132812 65.375 255.246094 65.226562 255.390625 C 65.078125 255.539062 64.964844 255.707031 64.882812 255.898438 C 64.800781 256.089844 64.761719 256.292969 64.761719 256.5 C 64.757812 256.707031 64.796875 256.910156 64.875 257.101562 C 64.953125 257.296875 65.066406 257.46875 65.210938 257.617188 C 65.359375 257.765625 65.527344 257.878906 65.71875 257.960938 C 65.910156 258.039062 66.109375 258.082031 66.316406 258.082031 Z M 81.421875 257.539062 C 83.695312 257.40625 86.222656 257.167969 89 256.816406 C 89.207031 256.789062 89.398438 256.726562 89.582031 256.621094 C 89.761719 256.519531 89.914062 256.386719 90.042969 256.21875 C 90.171875 256.054688 90.261719 255.871094 90.316406 255.671875 C 90.371094 255.46875 90.386719 255.265625 90.359375 255.058594 C 90.335938 254.851562 90.269531 254.660156 90.167969 254.476562 C 90.0625 254.296875 89.929688 254.140625 89.765625 254.015625 C 89.601562 253.886719 89.417969 253.792969 89.21875 253.738281 C 89.019531 253.683594 88.8125 253.671875 88.609375 253.695312 C 85.898438 254.039062 83.441406 254.273438 81.238281 254.402344 C 81.03125 254.414062 80.835938 254.464844 80.648438 254.554688 C 80.460938 254.644531 80.296875 254.769531 80.160156 254.925781 C 80.019531 255.082031 79.917969 255.257812 79.847656 255.453125 C 79.78125 255.652344 79.75 255.855469 79.765625 256.0625 C 79.777344 256.269531 79.828125 256.46875 79.917969 256.65625 C 80.007812 256.84375 80.132812 257.007812 80.289062 257.144531 C 80.441406 257.285156 80.617188 257.386719 80.816406 257.457031 C 81.011719 257.523438 81.214844 257.550781 81.421875 257.539062 Z M 96.488281 255.707031 C 98.847656 255.316406 101.320312 254.863281 103.914062 254.355469 C 104.117188 254.316406 104.304688 254.238281 104.480469 254.125 C 104.652344 254.007812 104.796875 253.863281 104.914062 253.691406 C 105.03125 253.519531 105.109375 253.328125 105.148438 253.125 C 105.191406 252.921875 105.191406 252.714844 105.152344 252.511719 C 105.113281 252.308594 105.035156 252.117188 104.917969 251.945312 C 104.804688 251.769531 104.660156 251.625 104.488281 251.507812 C 104.316406 251.390625 104.128906 251.3125 103.921875 251.273438 C 103.71875 251.230469 103.515625 251.230469 103.3125 251.269531 C 100.746094 251.773438 98.300781 252.21875 95.972656 252.605469 C 95.765625 252.640625 95.574219 252.714844 95.398438 252.824219 C 95.222656 252.933594 95.074219 253.074219 94.953125 253.242188 C 94.832031 253.414062 94.746094 253.601562 94.699219 253.804688 C 94.652344 254.007812 94.648438 254.210938 94.679688 254.417969 C 94.714844 254.621094 94.789062 254.8125 94.898438 254.988281 C 95.007812 255.167969 95.148438 255.316406 95.316406 255.4375 C 95.488281 255.558594 95.671875 255.640625 95.875 255.6875 C 96.078125 255.738281 96.28125 255.742188 96.488281 255.707031 Z M 111.316406 252.820312 L 118.636719 251.152344 C 118.839844 251.105469 119.023438 251.023438 119.195312 250.902344 C 119.363281 250.78125 119.503906 250.632812 119.617188 250.457031 C 119.726562 250.277344 119.800781 250.089844 119.835938 249.882812 C 119.871094 249.675781 119.863281 249.472656 119.816406 249.269531 C 119.773438 249.066406 119.6875 248.878906 119.570312 248.710938 C 119.449219 248.539062 119.300781 248.398438 119.125 248.289062 C 118.949219 248.175781 118.757812 248.101562 118.550781 248.066406 C 118.347656 248.03125 118.140625 248.039062 117.941406 248.085938 L 110.617188 249.753906 C 110.414062 249.800781 110.230469 249.882812 110.058594 250.003906 C 109.890625 250.125 109.75 250.273438 109.636719 250.449219 C 109.527344 250.625 109.453125 250.816406 109.417969 251.023438 C 109.382812 251.226562 109.390625 251.433594 109.4375 251.636719 C 109.484375 251.839844 109.566406 252.027344 109.6875 252.195312 C 109.804688 252.367188 109.953125 252.507812 110.132812 252.617188 C 110.308594 252.726562 110.496094 252.800781 110.703125 252.835938 C 110.90625 252.871094 111.113281 252.867188 111.316406 252.820312 Z M 125.972656 249.351562 L 133.242188 247.457031 C 133.441406 247.40625 133.625 247.316406 133.792969 247.191406 C 133.957031 247.066406 134.09375 246.914062 134.199219 246.734375 C 134.304688 246.554688 134.371094 246.359375 134.402344 246.152344 C 134.429688 245.945312 134.417969 245.742188 134.363281 245.542969 C 134.3125 245.339844 134.222656 245.15625 134.097656 244.988281 C 133.972656 244.824219 133.820312 244.6875 133.640625 244.582031 C 133.460938 244.476562 133.269531 244.410156 133.0625 244.378906 C 132.855469 244.351562 132.652344 244.363281 132.449219 244.414062 L 125.183594 246.308594 C 124.984375 246.359375 124.800781 246.449219 124.632812 246.574219 C 124.46875 246.703125 124.332031 246.855469 124.226562 247.035156 C 124.121094 247.214844 124.054688 247.40625 124.023438 247.613281 C 123.996094 247.820312 124.007812 248.023438 124.058594 248.226562 C 124.113281 248.425781 124.203125 248.613281 124.328125 248.777344 C 124.453125 248.945312 124.605469 249.082031 124.785156 249.1875 C 124.964844 249.292969 125.15625 249.359375 125.363281 249.386719 C 125.570312 249.414062 125.773438 249.402344 125.972656 249.351562 Z M 140.519531 245.460938 L 147.730469 243.386719 C 147.929688 243.328125 148.113281 243.234375 148.277344 243.105469 C 148.4375 242.972656 148.570312 242.816406 148.671875 242.636719 C 148.773438 242.453125 148.832031 242.257812 148.855469 242.050781 C 148.878906 241.84375 148.863281 241.640625 148.804688 241.441406 C 148.75 241.238281 148.65625 241.058594 148.527344 240.894531 C 148.394531 240.730469 148.238281 240.597656 148.058594 240.5 C 147.875 240.398438 147.679688 240.335938 147.476562 240.3125 C 147.269531 240.289062 147.066406 240.304688 146.863281 240.363281 L 139.652344 242.4375 C 139.453125 242.496094 139.273438 242.589844 139.109375 242.71875 C 138.945312 242.847656 138.8125 243.003906 138.714844 243.1875 C 138.613281 243.371094 138.550781 243.566406 138.527344 243.773438 C 138.503906 243.980469 138.519531 244.183594 138.578125 244.382812 C 138.636719 244.582031 138.730469 244.765625 138.859375 244.929688 C 138.988281 245.089844 139.144531 245.222656 139.328125 245.324219 C 139.507812 245.425781 139.703125 245.488281 139.910156 245.511719 C 140.117188 245.535156 140.320312 245.519531 140.519531 245.460938 Z M 154.960938 241.210938 L 161.679688 239.109375 L 162.136719 238.964844 C 162.332031 238.898438 162.511719 238.800781 162.671875 238.667969 C 162.832031 238.53125 162.957031 238.371094 163.054688 238.1875 C 163.148438 238 163.203125 237.804688 163.222656 237.597656 C 163.238281 237.390625 163.21875 237.1875 163.152344 236.988281 C 163.089844 236.789062 162.992188 236.609375 162.859375 236.449219 C 162.722656 236.292969 162.5625 236.164062 162.378906 236.070312 C 162.195312 235.972656 161.996094 235.917969 161.789062 235.898438 C 161.582031 235.882812 161.378906 235.902344 161.183594 235.96875 L 160.742188 236.109375 L 154.023438 238.210938 C 153.824219 238.273438 153.644531 238.371094 153.484375 238.503906 C 153.324219 238.636719 153.199219 238.796875 153.101562 238.980469 C 153.003906 239.167969 152.945312 239.363281 152.929688 239.570312 C 152.910156 239.777344 152.929688 239.980469 152.992188 240.179688 C 153.054688 240.378906 153.152344 240.558594 153.285156 240.71875 C 153.417969 240.878906 153.578125 241.007812 153.761719 241.105469 C 153.945312 241.199219 154.144531 241.257812 154.351562 241.277344 C 154.558594 241.296875 154.761719 241.273438 154.960938 241.210938 Z M 169.304688 236.625 L 176.410156 234.210938 C 176.609375 234.144531 176.785156 234.039062 176.941406 233.902344 C 177.097656 233.765625 177.222656 233.605469 177.3125 233.417969 C 177.40625 233.230469 177.460938 233.03125 177.472656 232.824219 C 177.488281 232.617188 177.460938 232.414062 177.394531 232.214844 C 177.328125 232.019531 177.222656 231.839844 177.085938 231.683594 C 176.949219 231.527344 176.789062 231.402344 176.601562 231.3125 C 176.414062 231.21875 176.21875 231.164062 176.011719 231.152344 C 175.800781 231.136719 175.601562 231.164062 175.402344 231.230469 L 168.292969 233.648438 C 168.097656 233.714844 167.921875 233.816406 167.765625 233.953125 C 167.609375 234.089844 167.484375 234.253906 167.390625 234.441406 C 167.300781 234.625 167.246094 234.824219 167.234375 235.03125 C 167.21875 235.242188 167.246094 235.441406 167.3125 235.640625 C 167.378906 235.839844 167.480469 236.015625 167.617188 236.171875 C 167.753906 236.328125 167.917969 236.453125 168.105469 236.546875 C 168.292969 236.636719 168.488281 236.691406 168.695312 236.703125 C 168.902344 236.71875 169.105469 236.691406 169.304688 236.625 Z M 183.527344 231.691406 L 190.574219 229.085938 C 190.769531 229.015625 190.941406 228.90625 191.09375 228.765625 C 191.25 228.625 191.367188 228.460938 191.457031 228.269531 C 191.542969 228.082031 191.589844 227.882812 191.597656 227.671875 C 191.605469 227.464844 191.574219 227.261719 191.503906 227.066406 C 191.429688 226.871094 191.324219 226.699219 191.183594 226.542969 C 191.042969 226.390625 190.875 226.269531 190.6875 226.183594 C 190.5 226.097656 190.300781 226.046875 190.089844 226.039062 C 189.882812 226.03125 189.683594 226.0625 189.488281 226.136719 L 182.441406 228.738281 C 182.246094 228.8125 182.074219 228.917969 181.921875 229.058594 C 181.769531 229.203125 181.648438 229.367188 181.558594 229.558594 C 181.472656 229.746094 181.425781 229.945312 181.417969 230.152344 C 181.410156 230.363281 181.441406 230.5625 181.511719 230.757812 C 181.585938 230.953125 181.691406 231.128906 181.832031 231.28125 C 181.976562 231.433594 182.140625 231.554688 182.328125 231.644531 C 182.519531 231.730469 182.714844 231.777344 182.925781 231.785156 C 183.132812 231.792969 183.332031 231.761719 183.527344 231.691406 Z M 197.613281 226.363281 C 200.007812 225.410156 202.335938 224.464844 204.59375 223.519531 C 204.785156 223.441406 204.957031 223.324219 205.101562 223.179688 C 205.25 223.03125 205.363281 222.859375 205.441406 222.667969 C 205.519531 222.472656 205.558594 222.273438 205.558594 222.066406 C 205.558594 221.855469 205.515625 221.65625 205.4375 221.464844 C 205.355469 221.269531 205.242188 221.101562 205.09375 220.953125 C 204.949219 220.808594 204.777344 220.695312 204.585938 220.613281 C 204.394531 220.535156 204.191406 220.496094 203.984375 220.496094 C 203.777344 220.496094 203.578125 220.539062 203.382812 220.617188 C 201.144531 221.554688 198.835938 222.496094 196.457031 223.4375 C 196.261719 223.515625 196.089844 223.625 195.941406 223.773438 C 195.792969 223.917969 195.675781 224.085938 195.59375 224.277344 C 195.511719 224.46875 195.46875 224.667969 195.464844 224.875 C 195.460938 225.085938 195.496094 225.285156 195.574219 225.480469 C 195.652344 225.671875 195.761719 225.84375 195.90625 225.996094 C 196.050781 226.144531 196.21875 226.261719 196.410156 226.34375 C 196.601562 226.425781 196.800781 226.46875 197.007812 226.472656 C 197.21875 226.476562 197.417969 226.441406 197.613281 226.363281 Z M 211.519531 220.535156 C 213.917969 219.464844 216.207031 218.410156 218.382812 217.371094 C 218.570312 217.28125 218.730469 217.15625 218.871094 217 C 219.011719 216.847656 219.113281 216.671875 219.183594 216.472656 C 219.253906 216.277344 219.28125 216.074219 219.269531 215.867188 C 219.261719 215.660156 219.210938 215.460938 219.121094 215.273438 C 219.03125 215.085938 218.90625 214.921875 218.753906 214.78125 C 218.597656 214.640625 218.421875 214.539062 218.226562 214.46875 C 218.03125 214.398438 217.828125 214.371094 217.621094 214.382812 C 217.410156 214.390625 217.214844 214.441406 217.027344 214.53125 C 214.878906 215.5625 212.617188 216.605469 210.246094 217.660156 C 210.054688 217.746094 209.890625 217.863281 209.746094 218.011719 C 209.601562 218.164062 209.492188 218.335938 209.417969 218.53125 C 209.34375 218.726562 209.308594 218.929688 209.316406 219.136719 C 209.320312 219.34375 209.363281 219.542969 209.449219 219.734375 C 209.535156 219.925781 209.652344 220.09375 209.800781 220.234375 C 209.953125 220.378906 210.125 220.488281 210.320312 220.5625 C 210.515625 220.640625 210.714844 220.671875 210.921875 220.667969 C 211.132812 220.664062 211.332031 220.617188 211.519531 220.535156 Z M 211.519531 220.535156 "/>
<path style="fill:none;stroke-width:166.662003;stroke-linecap:round;stroke-linejoin:round;stroke:rgb(5.099487%,17.649841%,27.449036%);stroke-opacity:1;stroke-miterlimit:4;" d="M 14163.928388 6064.151062 C 14222.621414 6095.206947 14279.862669 6125.848753 14334.822569 6156.49056 C 14343.118404 6220.465683 14347.888508 6285.061924 14349.547675 6350.279282 " transform="matrix(0.0188348,0,0,-0.0188672,-42.340524,326.991658)"/>
<path style=" stroke:none;fill-rule:nonzero;fill:rgb(5.099487%,17.649841%,27.449036%);fill-opacity:1;" d="M 229.03125 199.664062 C 228.714844 197.382812 228.230469 194.933594 227.578125 192.324219 C 227.527344 192.121094 227.4375 191.9375 227.316406 191.769531 C 227.191406 191.601562 227.039062 191.464844 226.859375 191.359375 C 226.683594 191.25 226.492188 191.183594 226.285156 191.152344 C 226.078125 191.121094 225.875 191.128906 225.671875 191.179688 C 225.472656 191.230469 225.285156 191.320312 225.121094 191.445312 C 224.953125 191.566406 224.816406 191.71875 224.707031 191.898438 C 224.601562 192.078125 224.53125 192.269531 224.5 192.476562 C 224.472656 192.683594 224.480469 192.886719 224.53125 193.089844 C 225.15625 195.589844 225.621094 197.925781 225.925781 200.097656 C 225.953125 200.304688 226.019531 200.496094 226.125 200.679688 C 226.230469 200.859375 226.367188 201.011719 226.53125 201.136719 C 226.699219 201.261719 226.882812 201.351562 227.082031 201.402344 C 227.285156 201.457031 227.488281 201.46875 227.695312 201.4375 C 227.902344 201.410156 228.09375 201.34375 228.273438 201.238281 C 228.453125 201.132812 228.605469 200.996094 228.730469 200.828125 C 228.855469 200.664062 228.945312 200.476562 228.996094 200.277344 C 229.050781 200.074219 229.0625 199.871094 229.03125 199.664062 Z M 225.527344 185.195312 C 224.875 183.144531 224.085938 180.820312 223.15625 178.214844 C 223.085938 178.019531 222.984375 177.84375 222.84375 177.6875 C 222.703125 177.535156 222.539062 177.414062 222.351562 177.324219 C 222.164062 177.234375 221.964844 177.183594 221.757812 177.171875 C 221.550781 177.164062 221.347656 177.191406 221.152344 177.261719 C 220.957031 177.332031 220.78125 177.4375 220.625 177.578125 C 220.472656 177.71875 220.351562 177.882812 220.261719 178.070312 C 220.171875 178.257812 220.121094 178.457031 220.113281 178.664062 C 220.101562 178.875 220.132812 179.074219 220.199219 179.273438 C 221.117188 181.839844 221.894531 184.136719 222.539062 186.152344 C 222.601562 186.351562 222.699219 186.527344 222.835938 186.6875 C 222.96875 186.847656 223.128906 186.976562 223.3125 187.070312 C 223.5 187.164062 223.695312 187.222656 223.902344 187.238281 C 224.109375 187.257812 224.3125 187.234375 224.511719 187.171875 C 224.707031 187.105469 224.886719 187.007812 225.046875 186.875 C 225.207031 186.738281 225.332031 186.578125 225.429688 186.394531 C 225.523438 186.207031 225.578125 186.011719 225.597656 185.804688 C 225.613281 185.597656 225.589844 185.394531 225.527344 185.195312 Z M 220.644531 171.320312 L 218.109375 164.457031 C 218.039062 164.261719 217.933594 164.089844 217.789062 163.933594 C 217.648438 163.78125 217.484375 163.660156 217.292969 163.574219 C 217.105469 163.488281 216.90625 163.441406 216.699219 163.433594 C 216.492188 163.425781 216.289062 163.457031 216.09375 163.527344 C 215.898438 163.601562 215.726562 163.707031 215.570312 163.847656 C 215.417969 163.992188 215.300781 164.15625 215.210938 164.347656 C 215.125 164.535156 215.078125 164.734375 215.070312 164.941406 C 215.0625 165.152344 215.09375 165.351562 215.167969 165.546875 L 217.699219 172.414062 C 217.773438 172.609375 217.878906 172.78125 218.019531 172.933594 C 218.160156 173.089844 218.328125 173.207031 218.515625 173.296875 C 218.707031 173.382812 218.902344 173.429688 219.113281 173.4375 C 219.320312 173.445312 219.519531 173.414062 219.714844 173.339844 C 219.910156 173.269531 220.085938 173.164062 220.238281 173.019531 C 220.390625 172.878906 220.511719 172.714844 220.597656 172.523438 C 220.683594 172.335938 220.734375 172.136719 220.742188 171.925781 C 220.75 171.71875 220.714844 171.515625 220.644531 171.320312 Z M 215.648438 157.59375 C 214.804688 155.175781 214.03125 152.875 213.324219 150.691406 C 213.261719 150.496094 213.164062 150.316406 213.027344 150.15625 C 212.890625 150 212.730469 149.871094 212.546875 149.777344 C 212.363281 149.683594 212.164062 149.625 211.957031 149.609375 C 211.75 149.59375 211.546875 149.617188 211.347656 149.679688 C 211.152344 149.746094 210.972656 149.84375 210.816406 149.980469 C 210.65625 150.113281 210.53125 150.273438 210.433594 150.460938 C 210.339844 150.644531 210.285156 150.84375 210.269531 151.050781 C 210.25 151.257812 210.273438 151.460938 210.339844 151.660156 C 211.050781 153.867188 211.832031 156.191406 212.6875 158.632812 C 212.753906 158.828125 212.859375 159.003906 212.996094 159.160156 C 213.136719 159.316406 213.300781 159.4375 213.488281 159.53125 C 213.675781 159.621094 213.871094 159.671875 214.078125 159.683594 C 214.289062 159.695312 214.488281 159.667969 214.6875 159.597656 C 214.882812 159.527344 215.058594 159.425781 215.214844 159.285156 C 215.367188 159.148438 215.492188 158.984375 215.582031 158.796875 C 215.671875 158.609375 215.722656 158.410156 215.734375 158.203125 C 215.746094 157.992188 215.71875 157.789062 215.648438 157.59375 Z M 211.195312 143.742188 C 210.507812 141.363281 209.878906 139.027344 209.300781 136.730469 C 209.25 136.53125 209.164062 136.34375 209.039062 136.175781 C 208.917969 136.011719 208.765625 135.871094 208.585938 135.765625 C 208.40625 135.660156 208.214844 135.589844 208.011719 135.558594 C 207.804688 135.527344 207.601562 135.539062 207.398438 135.589844 C 207.195312 135.640625 207.011719 135.726562 206.84375 135.851562 C 206.675781 135.976562 206.539062 136.128906 206.433594 136.304688 C 206.328125 136.484375 206.257812 136.675781 206.226562 136.882812 C 206.195312 137.089844 206.207031 137.292969 206.257812 137.496094 C 206.839844 139.828125 207.480469 142.203125 208.179688 144.617188 C 208.238281 144.816406 208.332031 145 208.460938 145.160156 C 208.59375 145.324219 208.75 145.457031 208.929688 145.554688 C 209.113281 145.65625 209.308594 145.71875 209.515625 145.742188 C 209.722656 145.765625 209.925781 145.746094 210.125 145.6875 C 210.324219 145.632812 210.503906 145.535156 210.667969 145.40625 C 210.832031 145.277344 210.960938 145.121094 211.0625 144.9375 C 211.164062 144.753906 211.226562 144.558594 211.246094 144.351562 C 211.269531 144.144531 211.253906 143.941406 211.195312 143.742188 Z M 207.683594 129.660156 C 207.183594 127.269531 206.746094 124.894531 206.359375 122.53125 C 206.328125 122.324219 206.253906 122.132812 206.144531 121.957031 C 206.035156 121.78125 205.898438 121.628906 205.726562 121.507812 C 205.558594 121.386719 205.375 121.300781 205.171875 121.253906 C 204.96875 121.207031 204.765625 121.199219 204.558594 121.234375 C 204.355469 121.265625 204.164062 121.335938 203.984375 121.449219 C 203.808594 121.558594 203.660156 121.695312 203.539062 121.867188 C 203.417969 122.035156 203.332031 122.222656 203.285156 122.425781 C 203.234375 122.628906 203.230469 122.832031 203.261719 123.035156 C 203.652344 125.445312 204.101562 127.867188 204.609375 130.300781 C 204.652344 130.503906 204.730469 130.695312 204.847656 130.867188 C 204.964844 131.039062 205.109375 131.183594 205.285156 131.296875 C 205.457031 131.410156 205.648438 131.488281 205.851562 131.527344 C 206.058594 131.566406 206.261719 131.5625 206.464844 131.519531 C 206.667969 131.476562 206.855469 131.398438 207.027344 131.28125 C 207.199219 131.164062 207.34375 131.019531 207.457031 130.84375 C 207.570312 130.667969 207.648438 130.480469 207.6875 130.273438 C 207.726562 130.070312 207.722656 129.867188 207.683594 129.660156 Z M 205.359375 115.355469 C 205.078125 112.945312 204.855469 110.542969 204.691406 108.136719 C 204.675781 107.929688 204.625 107.734375 204.53125 107.546875 C 204.4375 107.359375 204.3125 107.199219 204.15625 107.0625 C 204 106.921875 203.820312 106.820312 203.625 106.753906 C 203.425781 106.6875 203.226562 106.664062 203.015625 106.679688 C 202.808594 106.691406 202.613281 106.746094 202.425781 106.839844 C 202.238281 106.929688 202.078125 107.054688 201.941406 107.214844 C 201.804688 107.371094 201.703125 107.546875 201.636719 107.746094 C 201.570312 107.945312 201.546875 108.148438 201.558594 108.355469 C 201.730469 110.808594 201.957031 113.261719 202.242188 115.71875 C 202.265625 115.925781 202.328125 116.121094 202.429688 116.300781 C 202.53125 116.484375 202.664062 116.640625 202.828125 116.769531 C 202.988281 116.898438 203.171875 116.992188 203.371094 117.046875 C 203.570312 117.105469 203.773438 117.121094 203.980469 117.097656 C 204.1875 117.074219 204.382812 117.011719 204.566406 116.910156 C 204.746094 116.808594 204.902344 116.675781 205.03125 116.511719 C 205.160156 116.347656 205.253906 116.167969 205.308594 115.964844 C 205.367188 115.765625 205.382812 115.5625 205.359375 115.355469 Z M 204.363281 100.902344 C 204.3125 98.492188 204.316406 96.078125 204.375 93.65625 C 204.378906 93.449219 204.347656 93.246094 204.269531 93.054688 C 204.195312 92.859375 204.085938 92.683594 203.945312 92.535156 C 203.800781 92.382812 203.632812 92.265625 203.441406 92.179688 C 203.253906 92.097656 203.054688 92.050781 202.847656 92.046875 C 202.636719 92.039062 202.4375 92.074219 202.242188 92.152344 C 202.046875 92.226562 201.875 92.335938 201.726562 92.480469 C 201.574219 92.621094 201.457031 92.789062 201.371094 92.980469 C 201.289062 93.171875 201.242188 93.371094 201.238281 93.578125 C 201.175781 96.046875 201.171875 98.511719 201.226562 100.972656 C 201.230469 101.179688 201.273438 101.378906 201.359375 101.570312 C 201.441406 101.761719 201.558594 101.929688 201.707031 102.074219 C 201.859375 102.214844 202.03125 102.328125 202.226562 102.402344 C 202.417969 102.476562 202.621094 102.511719 202.828125 102.507812 C 203.035156 102.503906 203.234375 102.460938 203.425781 102.375 C 203.617188 102.292969 203.785156 102.175781 203.929688 102.023438 C 204.070312 101.875 204.179688 101.699219 204.257812 101.507812 C 204.332031 101.3125 204.367188 101.109375 204.363281 100.902344 Z M 204.363281 100.902344 "/>
<path style="fill:none;stroke-width:166.662003;stroke-linecap:round;stroke-linejoin:round;stroke:rgb(5.099487%,17.649841%,27.449036%);stroke-opacity:1;stroke-miterlimit:4;" d="M 13034.450581 12757.936511 C 13039.01329 12821.911634 13044.198186 12886.507875 13050.420062 12951.725233 C 12991.312244 12933.71282 12928.886093 12916.114485 12863.349004 12899.137268 " transform="matrix(0.0188348,0,0,-0.0188672,-42.340524,326.991658)"/>
<path style=" stroke:none;fill-rule:nonzero;fill:rgb(5.099487%,17.649841%,27.449036%);fill-opacity:1;" d="M 192.476562 83.699219 C 190.148438 84.15625 187.765625 84.5625 185.328125 84.917969 C 185.121094 84.949219 184.929688 85.015625 184.75 85.121094 C 184.570312 85.230469 184.417969 85.367188 184.292969 85.535156 C 184.167969 85.699219 184.082031 85.886719 184.03125 86.085938 C 183.980469 86.289062 183.96875 86.492188 184 86.699219 C 184.027344 86.90625 184.097656 87.097656 184.203125 87.277344 C 184.308594 87.457031 184.445312 87.609375 184.613281 87.734375 C 184.78125 87.859375 184.964844 87.945312 185.167969 87.996094 C 185.367188 88.046875 185.570312 88.058594 185.777344 88.03125 C 188.265625 87.667969 190.703125 87.253906 193.082031 86.785156 C 193.285156 86.746094 193.472656 86.667969 193.648438 86.550781 C 193.820312 86.4375 193.964844 86.292969 194.082031 86.121094 C 194.199219 85.945312 194.277344 85.757812 194.316406 85.554688 C 194.359375 85.347656 194.359375 85.144531 194.320312 84.941406 C 194.277344 84.734375 194.203125 84.546875 194.085938 84.371094 C 193.972656 84.199219 193.828125 84.054688 193.65625 83.9375 C 193.480469 83.820312 193.292969 83.742188 193.089844 83.703125 C 192.886719 83.660156 192.679688 83.660156 192.476562 83.699219 Z M 178.113281 85.796875 C 175.636719 86.035156 173.226562 86.210938 170.875 86.316406 C 170.667969 86.324219 170.46875 86.371094 170.28125 86.460938 C 170.09375 86.550781 169.925781 86.671875 169.789062 86.824219 C 169.648438 86.976562 169.542969 87.152344 169.46875 87.347656 C 169.398438 87.546875 169.367188 87.746094 169.378906 87.957031 C 169.386719 88.164062 169.433594 88.363281 169.523438 88.550781 C 169.613281 88.738281 169.734375 88.90625 169.886719 89.046875 C 170.039062 89.1875 170.214844 89.292969 170.410156 89.363281 C 170.605469 89.433594 170.808594 89.464844 171.015625 89.457031 C 173.421875 89.347656 175.886719 89.171875 178.417969 88.925781 C 178.625 88.90625 178.820312 88.84375 179.003906 88.746094 C 179.1875 88.648438 179.34375 88.519531 179.476562 88.359375 C 179.609375 88.199219 179.703125 88.019531 179.765625 87.816406 C 179.824219 87.617188 179.847656 87.414062 179.828125 87.207031 C 179.804688 87 179.746094 86.804688 179.648438 86.621094 C 179.550781 86.4375 179.421875 86.277344 179.261719 86.144531 C 179.101562 86.011719 178.921875 85.917969 178.722656 85.855469 C 178.523438 85.796875 178.320312 85.773438 178.113281 85.796875 Z M 163.644531 86.410156 C 161.058594 86.355469 158.667969 86.199219 156.472656 85.941406 C 156.265625 85.917969 156.0625 85.933594 155.863281 85.992188 C 155.660156 86.046875 155.480469 86.140625 155.316406 86.269531 C 155.152344 86.398438 155.019531 86.554688 154.917969 86.734375 C 154.816406 86.917969 154.753906 87.113281 154.730469 87.320312 C 154.707031 87.527344 154.722656 87.730469 154.78125 87.929688 C 154.835938 88.132812 154.929688 88.3125 155.058594 88.476562 C 155.1875 88.640625 155.34375 88.773438 155.523438 88.875 C 155.707031 88.976562 155.898438 89.039062 156.105469 89.066406 C 158.402344 89.335938 160.890625 89.5 163.578125 89.554688 C 163.785156 89.558594 163.984375 89.523438 164.179688 89.449219 C 164.375 89.371094 164.546875 89.261719 164.695312 89.117188 C 164.847656 88.972656 164.964844 88.808594 165.046875 88.617188 C 165.128906 88.425781 165.175781 88.226562 165.179688 88.015625 C 165.183594 87.808594 165.148438 87.605469 165.070312 87.414062 C 164.996094 87.21875 164.886719 87.046875 164.742188 86.894531 C 164.597656 86.746094 164.429688 86.628906 164.242188 86.542969 C 164.050781 86.460938 163.851562 86.417969 163.644531 86.410156 Z M 149.546875 84.585938 C 149.089844 84.449219 148.652344 84.308594 148.234375 84.15625 C 147.96875 84.058594 147.671875 83.988281 147.34375 83.9375 C 147.175781 83.914062 146.9375 83.886719 146.625 83.863281 C 146.324219 83.835938 146.109375 83.8125 145.988281 83.789062 C 144.910156 83.589844 143.695312 83.320312 142.347656 82.976562 C 142.148438 82.921875 141.945312 82.914062 141.738281 82.941406 C 141.53125 82.972656 141.339844 83.039062 141.160156 83.144531 C 140.980469 83.253906 140.828125 83.390625 140.703125 83.554688 C 140.578125 83.722656 140.492188 83.90625 140.441406 84.109375 C 140.390625 84.3125 140.378906 84.515625 140.40625 84.722656 C 140.4375 84.929688 140.503906 85.121094 140.613281 85.300781 C 140.71875 85.480469 140.855469 85.632812 141.019531 85.757812 C 141.1875 85.882812 141.371094 85.96875 141.574219 86.023438 C 142.988281 86.382812 144.273438 86.671875 145.421875 86.882812 C 145.648438 86.925781 145.960938 86.960938 146.363281 86.996094 C 146.777344 87.03125 147.046875 87.070312 147.171875 87.113281 C 147.644531 87.285156 148.136719 87.445312 148.648438 87.601562 C 148.847656 87.660156 149.050781 87.679688 149.257812 87.65625 C 149.464844 87.636719 149.660156 87.578125 149.84375 87.476562 C 150.027344 87.378906 150.183594 87.246094 150.316406 87.085938 C 150.445312 86.925781 150.542969 86.742188 150.601562 86.542969 C 150.660156 86.34375 150.679688 86.140625 150.660156 85.933594 C 150.636719 85.726562 150.578125 85.53125 150.476562 85.347656 C 150.378906 85.164062 150.25 85.003906 150.085938 84.875 C 149.925781 84.742188 149.746094 84.648438 149.546875 84.585938 Z M 135.390625 80.945312 C 133.433594 80.324219 131.121094 79.558594 128.457031 78.648438 C 128.261719 78.578125 128.058594 78.554688 127.851562 78.566406 C 127.644531 78.578125 127.445312 78.632812 127.261719 78.722656 C 127.074219 78.816406 126.910156 78.941406 126.773438 79.097656 C 126.636719 79.253906 126.535156 79.429688 126.464844 79.625 C 126.398438 79.824219 126.371094 80.027344 126.386719 80.234375 C 126.398438 80.441406 126.449219 80.640625 126.542969 80.828125 C 126.632812 81.015625 126.757812 81.175781 126.914062 81.316406 C 127.070312 81.453125 127.246094 81.554688 127.445312 81.621094 C 130.128906 82.542969 132.460938 83.316406 134.441406 83.945312 C 134.640625 84.007812 134.84375 84.03125 135.050781 84.011719 C 135.257812 83.996094 135.453125 83.9375 135.636719 83.839844 C 135.824219 83.746094 135.980469 83.617188 136.117188 83.457031 C 136.25 83.296875 136.347656 83.121094 136.410156 82.921875 C 136.472656 82.722656 136.496094 82.519531 136.480469 82.3125 C 136.460938 82.101562 136.40625 81.90625 136.308594 81.722656 C 136.210938 81.535156 136.085938 81.378906 135.925781 81.242188 C 135.765625 81.109375 135.589844 81.011719 135.390625 80.945312 Z M 121.53125 76.242188 L 114.605469 73.828125 C 114.410156 73.761719 114.207031 73.734375 114 73.746094 C 113.792969 73.757812 113.59375 73.808594 113.40625 73.898438 C 113.21875 73.988281 113.058594 74.113281 112.917969 74.269531 C 112.78125 74.425781 112.675781 74.601562 112.609375 74.796875 C 112.539062 74.996094 112.511719 75.195312 112.523438 75.40625 C 112.535156 75.613281 112.585938 75.8125 112.679688 76 C 112.769531 76.1875 112.890625 76.351562 113.046875 76.488281 C 113.203125 76.628906 113.378906 76.730469 113.574219 76.800781 L 120.5 79.210938 C 120.699219 79.28125 120.898438 79.308594 121.109375 79.296875 C 121.316406 79.285156 121.511719 79.234375 121.699219 79.144531 C 121.886719 79.050781 122.050781 78.929688 122.191406 78.773438 C 122.328125 78.617188 122.429688 78.441406 122.5 78.246094 C 122.566406 78.046875 122.597656 77.84375 122.585938 77.636719 C 122.570312 77.429688 122.519531 77.230469 122.429688 77.042969 C 122.339844 76.855469 122.214844 76.691406 122.0625 76.554688 C 121.90625 76.414062 121.730469 76.3125 121.53125 76.242188 Z M 107.628906 71.464844 C 105.089844 70.625 102.746094 69.878906 100.597656 69.226562 C 100.398438 69.164062 100.195312 69.144531 99.988281 69.164062 C 99.78125 69.1875 99.585938 69.246094 99.402344 69.34375 C 99.21875 69.441406 99.058594 69.570312 98.925781 69.734375 C 98.796875 69.894531 98.699219 70.074219 98.640625 70.273438 C 98.578125 70.472656 98.558594 70.675781 98.578125 70.882812 C 98.597656 71.09375 98.660156 71.289062 98.757812 71.472656 C 98.855469 71.65625 98.984375 71.8125 99.144531 71.945312 C 99.304688 72.078125 99.484375 72.175781 99.683594 72.234375 C 101.808594 72.878906 104.128906 73.617188 106.644531 74.449219 C 106.84375 74.515625 107.042969 74.539062 107.253906 74.523438 C 107.460938 74.511719 107.65625 74.457031 107.84375 74.363281 C 108.027344 74.269531 108.1875 74.140625 108.324219 73.984375 C 108.460938 73.824219 108.5625 73.648438 108.625 73.449219 C 108.691406 73.253906 108.714844 73.050781 108.703125 72.839844 C 108.6875 72.632812 108.632812 72.4375 108.539062 72.25 C 108.445312 72.0625 108.320312 71.902344 108.160156 71.765625 C 108.003906 71.628906 107.824219 71.53125 107.628906 71.464844 Z M 93.472656 67.207031 C 90.839844 66.519531 88.421875 65.972656 86.21875 65.5625 C 86.011719 65.523438 85.808594 65.523438 85.605469 65.570312 C 85.402344 65.613281 85.214844 65.691406 85.042969 65.808594 C 84.871094 65.929688 84.726562 66.074219 84.613281 66.25 C 84.5 66.421875 84.425781 66.613281 84.386719 66.820312 C 84.347656 67.023438 84.351562 67.226562 84.394531 67.433594 C 84.4375 67.636719 84.519531 67.824219 84.636719 67.996094 C 84.753906 68.167969 84.898438 68.308594 85.074219 68.425781 C 85.25 68.539062 85.4375 68.613281 85.640625 68.652344 C 87.773438 69.050781 90.121094 69.582031 92.683594 70.25 C 92.886719 70.300781 93.089844 70.3125 93.296875 70.285156 C 93.503906 70.253906 93.695312 70.1875 93.875 70.082031 C 94.054688 69.976562 94.207031 69.839844 94.332031 69.675781 C 94.457031 69.507812 94.546875 69.324219 94.597656 69.121094 C 94.652344 68.921875 94.664062 68.714844 94.632812 68.511719 C 94.605469 68.304688 94.539062 68.109375 94.433594 67.929688 C 94.328125 67.75 94.191406 67.597656 94.023438 67.472656 C 93.859375 67.347656 93.675781 67.257812 93.472656 67.207031 Z M 78.726562 64.628906 C 77.710938 64.582031 76.753906 64.578125 75.855469 64.621094 C 74.367188 64.691406 72.796875 64.835938 71.140625 65.050781 C 70.933594 65.078125 70.742188 65.144531 70.5625 65.246094 C 70.378906 65.351562 70.226562 65.484375 70.101562 65.652344 C 69.972656 65.816406 69.882812 66 69.828125 66.199219 C 69.773438 66.402344 69.757812 66.605469 69.785156 66.8125 C 69.8125 67.019531 69.878906 67.210938 69.980469 67.394531 C 70.085938 67.574219 70.21875 67.726562 70.386719 67.855469 C 70.550781 67.984375 70.734375 68.074219 70.933594 68.128906 C 71.136719 68.183594 71.339844 68.195312 71.546875 68.167969 C 73.113281 67.964844 74.601562 67.828125 76.003906 67.761719 C 76.804688 67.726562 77.664062 67.726562 78.585938 67.769531 C 78.792969 67.777344 78.992188 67.746094 79.191406 67.675781 C 79.386719 67.605469 79.558594 67.5 79.714844 67.359375 C 79.867188 67.21875 79.988281 67.054688 80.078125 66.863281 C 80.164062 66.675781 80.214844 66.476562 80.222656 66.269531 C 80.234375 66.0625 80.203125 65.859375 80.132812 65.664062 C 80.0625 65.46875 79.957031 65.292969 79.816406 65.136719 C 79.675781 64.984375 79.511719 64.863281 79.320312 64.773438 C 79.132812 64.6875 78.933594 64.636719 78.726562 64.628906 Z M 63.785156 66.359375 C 61.503906 66.863281 59.101562 67.46875 56.582031 68.183594 C 56.382812 68.238281 56.199219 68.332031 56.039062 68.460938 C 55.875 68.589844 55.742188 68.746094 55.640625 68.929688 C 55.539062 69.109375 55.476562 69.304688 55.453125 69.511719 C 55.425781 69.71875 55.441406 69.921875 55.5 70.125 C 55.554688 70.324219 55.648438 70.507812 55.777344 70.671875 C 55.90625 70.835938 56.0625 70.964844 56.242188 71.070312 C 56.425781 71.171875 56.621094 71.234375 56.828125 71.257812 C 57.03125 71.28125 57.238281 71.265625 57.4375 71.210938 C 59.894531 70.511719 62.238281 69.921875 64.460938 69.429688 C 64.664062 69.386719 64.847656 69.304688 65.019531 69.183594 C 65.191406 69.066406 65.332031 68.917969 65.445312 68.742188 C 65.558594 68.566406 65.632812 68.375 65.667969 68.171875 C 65.703125 67.964844 65.699219 67.761719 65.65625 67.558594 C 65.609375 67.355469 65.527344 67.167969 65.410156 66.996094 C 65.289062 66.824219 65.144531 66.683594 64.96875 66.570312 C 64.792969 66.457031 64.601562 66.382812 64.398438 66.347656 C 64.191406 66.3125 63.988281 66.316406 63.785156 66.359375 Z M 49.503906 70.363281 C 47.25 71.105469 44.925781 71.921875 42.527344 72.804688 C 42.332031 72.875 42.15625 72.984375 42.003906 73.125 C 41.851562 73.265625 41.730469 73.429688 41.644531 73.621094 C 41.558594 73.808594 41.507812 74.007812 41.5 74.21875 C 41.492188 74.425781 41.523438 74.628906 41.597656 74.824219 C 41.667969 75.019531 41.773438 75.191406 41.914062 75.347656 C 42.054688 75.5 42.222656 75.621094 42.410156 75.707031 C 42.597656 75.796875 42.796875 75.84375 43.003906 75.851562 C 43.214844 75.859375 43.414062 75.828125 43.609375 75.753906 C 45.976562 74.882812 48.269531 74.082031 50.488281 73.347656 C 50.6875 73.28125 50.863281 73.183594 51.019531 73.046875 C 51.179688 72.910156 51.304688 72.75 51.398438 72.5625 C 51.492188 72.375 51.546875 72.179688 51.5625 71.972656 C 51.578125 71.761719 51.550781 71.558594 51.488281 71.363281 C 51.421875 71.164062 51.320312 70.984375 51.183594 70.828125 C 51.050781 70.671875 50.886719 70.542969 50.703125 70.449219 C 50.515625 70.355469 50.320312 70.300781 50.113281 70.285156 C 49.90625 70.269531 49.703125 70.296875 49.503906 70.363281 Z M 35.636719 75.457031 C 33.40625 76.347656 31.132812 77.289062 28.824219 78.277344 C 28.632812 78.359375 28.464844 78.476562 28.316406 78.625 C 28.171875 78.773438 28.0625 78.945312 27.984375 79.140625 C 27.90625 79.332031 27.867188 79.535156 27.871094 79.742188 C 27.871094 79.949219 27.914062 80.148438 27.996094 80.34375 C 28.078125 80.535156 28.195312 80.703125 28.34375 80.847656 C 28.492188 80.996094 28.660156 81.105469 28.855469 81.183594 C 29.046875 81.261719 29.25 81.300781 29.457031 81.296875 C 29.664062 81.292969 29.863281 81.253906 30.054688 81.171875 C 32.34375 80.191406 34.59375 79.261719 36.800781 78.375 C 36.992188 78.300781 37.164062 78.1875 37.3125 78.042969 C 37.464844 77.894531 37.578125 77.726562 37.660156 77.535156 C 37.742188 77.34375 37.785156 77.144531 37.789062 76.9375 C 37.789062 76.726562 37.753906 76.527344 37.675781 76.332031 C 37.597656 76.140625 37.488281 75.96875 37.34375 75.820312 C 37.195312 75.667969 37.027344 75.554688 36.835938 75.472656 C 36.644531 75.390625 36.445312 75.347656 36.238281 75.34375 C 36.03125 75.339844 35.828125 75.378906 35.636719 75.457031 Z M 22.078125 81.25 C 19.847656 82.261719 17.617188 83.296875 15.394531 84.355469 C 15.207031 84.445312 15.042969 84.570312 14.902344 84.722656 C 14.765625 84.878906 14.660156 85.054688 14.589844 85.25 C 14.519531 85.445312 14.492188 85.648438 14.503906 85.859375 C 14.511719 86.066406 14.5625 86.265625 14.652344 86.453125 C 14.742188 86.640625 14.863281 86.804688 15.019531 86.945312 C 15.171875 87.082031 15.347656 87.1875 15.542969 87.257812 C 15.742188 87.328125 15.941406 87.359375 16.152344 87.347656 C 16.359375 87.335938 16.554688 87.285156 16.746094 87.195312 C 18.949219 86.144531 21.160156 85.117188 23.371094 84.113281 C 23.5625 84.027344 23.726562 83.910156 23.871094 83.757812 C 24.011719 83.605469 24.121094 83.433594 24.195312 83.238281 C 24.265625 83.042969 24.300781 82.839844 24.292969 82.632812 C 24.285156 82.425781 24.242188 82.226562 24.15625 82.035156 C 24.070312 81.84375 23.949219 81.679688 23.796875 81.535156 C 23.648438 81.394531 23.472656 81.285156 23.277344 81.210938 C 23.085938 81.136719 22.882812 81.105469 22.675781 81.109375 C 22.46875 81.117188 22.269531 81.164062 22.078125 81.25 Z M 22.078125 81.25 "/>
<path style="fill:none;stroke-width:166.662003;stroke-linecap:round;stroke-linejoin:round;stroke:rgb(5.099487%,17.649841%,27.449036%);stroke-opacity:1;stroke-miterlimit:4;" d="M 2750.105102 12613.216087 C 2639.563113 12557.729572 2577.136962 12524.810334 2577.136962 12524.810334 " transform="matrix(0.0188348,0,0,-0.0188672,-42.340524,326.991658)"/>
<path style="fill:none;stroke-width:81.713997;stroke-linecap:round;stroke-linejoin:round;stroke:rgb(18.818665%,40.388489%,53.329468%);stroke-opacity:1;stroke-miterlimit:10;" d="M 4927.139354 4183.613707 C 8297.114544 4183.613707 11668.126712 5406.387418 13715.745953 6582.370263 C 13917.542116 7866.841665 12189.727278 9032.05847 12510.153869 11854.624336 C 11695.295569 11649.034378 10220.503669 11834.334492 9510.380274 12046.135627 C 9477.196938 12056.07351 9439.658289 12054.003118 9402.949223 12059.386138 C 8531.057064 12192.719404 7106.247565 12778.019316 6175.66238 12741.580411 C 4786.732363 12686.922054 2586.469775 11611.146198 2586.469775 11611.146198 " transform="matrix(0.0188348,0,0,-0.0188672,-42.340524,326.991658)"/>
<path style="fill:none;stroke-width:81.713997;stroke-linecap:round;stroke-linejoin:round;stroke:rgb(18.818665%,40.388489%,53.329468%);stroke-opacity:1;stroke-miterlimit:10;" d="M 2522.384457 9878.641895 C 2522.384457 9878.641895 7974.406599 9106.178515 12493.562201 10659.179804 " transform="matrix(0.0188348,0,0,-0.0188672,-42.340524,326.991658)"/>
<path style="fill:none;stroke-width:81.713997;stroke-linecap:round;stroke-linejoin:round;stroke:rgb(18.818665%,40.388489%,53.329468%);stroke-opacity:1;stroke-miterlimit:10;" d="M 3308.414734 7063.943519 C 3308.414734 7063.943519 6270.64968 5516.325251 13151.00705 8463.528736 " transform="matrix(0.0188348,0,0,-0.0188672,-42.340524,326.991658)"/>
<path style="fill:none;stroke-width:81.713997;stroke-linecap:round;stroke-linejoin:round;stroke:rgb(18.818665%,40.388489%,53.329468%);stroke-opacity:1;stroke-miterlimit:10;" d="M 3547.956942 6175.33113 C 3547.956942 6175.33113 5706.947755 3743.448297 13316.094147 8117.773216 " transform="matrix(0.0188348,0,0,-0.0188672,-42.340524,326.991658)"/>
<path style="fill:none;stroke-width:81.713997;stroke-linecap:round;stroke-linejoin:round;stroke:rgb(18.818665%,40.388489%,53.329468%);stroke-opacity:1;stroke-miterlimit:10;" d="M 13442.190825 7847.379977 C 13442.190825 7847.379977 10188.149917 5267.671132 5903.351627 4933.923888 C 4076.194176 4933.923888 3758.256336 5773.882057 3758.256336 5773.882057 " transform="matrix(0.0188348,0,0,-0.0188672,-42.340524,326.991658)"/>
</g>
</svg>
