<?xml version="1.0" encoding="UTF-8"?>
<svg xmlns="http://www.w3.org/2000/svg" xmlns:xlink="http://www.w3.org/1999/xlink" width="375pt" height="374.999991pt" viewBox="0 0 375 374.999991" version="1.2">
<defs>
<clipPath id="clip1">
  <path d="M 171 66 L 353 66 L 353 337.527344 L 171 337.527344 Z M 171 66 "/>
</clipPath>
</defs>
<g id="surface1">
<path style=" stroke:none;fill-rule:nonzero;fill:rgb(91.758728%,33.329773%,57.249451%);fill-opacity:1;" d="M 269.558594 68.085938 C 229.460938 69.957031 187.441406 116.699219 187.441406 116.699219 C 187.441406 116.699219 145.421875 69.957031 105.324219 68.085938 C 61.183594 66.027344 -0.0507812 116.84375 33.511719 195.203125 C 58.113281 252.636719 165.070312 335.402344 187.441406 335.402344 C 209.8125 335.402344 316.773438 252.640625 341.371094 195.203125 C 374.933594 116.84375 313.699219 66.027344 269.558594 68.085938 Z M 269.558594 68.085938 "/>
<path style=" stroke:none;fill-rule:nonzero;fill:rgb(85.488892%,18.429565%,48.629761%);fill-opacity:1;" d="M 160.179688 302.507812 C 153.097656 302.507812 153.097656 313.476562 160.179688 313.476562 C 167.261719 313.476562 167.261719 302.507812 160.179688 302.507812 Z M 160.179688 302.507812 "/>
<path style=" stroke:none;fill-rule:nonzero;fill:rgb(85.488892%,18.429565%,48.629761%);fill-opacity:1;" d="M 142.746094 300.617188 C 139.183594 300.617188 139.183594 306.152344 142.746094 306.152344 C 146.316406 306.152344 146.316406 300.617188 142.746094 300.617188 Z M 142.746094 300.617188 "/>
<path style=" stroke:none;fill-rule:nonzero;fill:rgb(85.488892%,18.429565%,48.629761%);fill-opacity:1;" d="M 125.230469 295.96875 C 125.015625 295.96875 124.8125 295.992188 124.617188 296.027344 C 124.519531 296.503906 124.246094 296.9375 123.808594 297.183594 C 125.078125 298.199219 126.34375 299.199219 127.605469 300.195312 C 128.46875 298.53125 127.679688 295.96875 125.230469 295.96875 Z M 125.230469 295.96875 "/>
<path style=" stroke:none;fill-rule:nonzero;fill:rgb(85.488892%,18.429565%,48.629761%);fill-opacity:1;" d="M 181.476562 321.808594 C 179.078125 321.808594 179.078125 325.523438 181.476562 325.523438 C 183.875 325.523438 183.875 321.808594 181.476562 321.808594 Z M 181.476562 321.808594 "/>
<path style=" stroke:none;fill-rule:nonzero;fill:rgb(85.488892%,18.429565%,48.629761%);fill-opacity:1;" d="M 175.023438 306.367188 C 171.734375 306.367188 171.734375 311.464844 175.023438 311.464844 C 178.308594 311.464844 178.308594 306.367188 175.023438 306.367188 Z M 175.023438 306.367188 "/>
<path style=" stroke:none;fill-rule:nonzero;fill:rgb(85.488892%,18.429565%,48.629761%);fill-opacity:1;" d="M 170.410156 289.601562 C 166.898438 289.601562 166.898438 295.046875 170.410156 295.046875 C 173.925781 295.046875 173.925781 289.601562 170.410156 289.601562 Z M 170.410156 289.601562 "/>
<path style=" stroke:none;fill-rule:nonzero;fill:rgb(85.488892%,18.429565%,48.629761%);fill-opacity:1;" d="M 202.683594 305.144531 C 199.003906 305.144531 199.003906 310.851562 202.683594 310.851562 C 206.367188 310.851562 206.367188 305.144531 202.683594 305.144531 Z M 202.683594 305.144531 "/>
<path style=" stroke:none;fill-rule:nonzero;fill:rgb(85.488892%,18.429565%,48.629761%);fill-opacity:1;" d="M 204.53125 323.691406 C 202.1875 323.691406 202.1875 327.324219 204.53125 327.324219 C 206.871094 327.324219 206.871094 323.691406 204.53125 323.691406 Z M 204.53125 323.691406 "/>
<path style=" stroke:none;fill-rule:nonzero;fill:rgb(85.488892%,18.429565%,48.629761%);fill-opacity:1;" d="M 78.007812 191.382812 C 70.925781 191.382812 70.925781 202.355469 78.007812 202.355469 C 85.089844 202.351562 85.089844 191.382812 78.007812 191.382812 Z M 78.007812 191.382812 "/>
<path style=" stroke:none;fill-rule:nonzero;fill:rgb(85.488892%,18.429565%,48.629761%);fill-opacity:1;" d="M 47.664062 208.96875 C 45.433594 208.96875 45.433594 212.425781 47.664062 212.425781 C 49.894531 212.425781 49.894531 208.96875 47.664062 208.96875 Z M 47.664062 208.96875 "/>
<path style=" stroke:none;fill-rule:nonzero;fill:rgb(85.488892%,18.429565%,48.629761%);fill-opacity:1;" d="M 60.574219 189.492188 C 57.007812 189.492188 57.007812 195.023438 60.574219 195.023438 C 64.140625 195.023438 64.140625 189.492188 60.574219 189.492188 Z M 59.242188 193.835938 C 57.957031 193.835938 57.957031 191.847656 59.242188 191.847656 C 60.527344 191.847656 60.527344 193.835938 59.242188 193.835938 Z M 59.242188 193.835938 "/>
<path style=" stroke:none;fill-rule:nonzero;fill:rgb(85.488892%,18.429565%,48.629761%);fill-opacity:1;" d="M 43.054688 184.84375 C 39.429688 184.84375 39.429688 190.460938 43.054688 190.460938 C 46.675781 190.460938 46.675781 184.84375 43.054688 184.84375 Z M 43.054688 184.84375 "/>
<path style=" stroke:none;fill-rule:nonzero;fill:rgb(85.488892%,18.429565%,48.629761%);fill-opacity:1;" d="M 36.15625 197.613281 C 35.5625 197.613281 35.152344 197.882812 34.890625 198.253906 C 35.300781 199.132812 35.730469 200.007812 36.175781 200.886719 C 38.273438 200.867188 38.269531 197.613281 36.15625 197.613281 Z M 36.15625 197.613281 "/>
<path style=" stroke:none;fill-rule:nonzero;fill:rgb(85.488892%,18.429565%,48.629761%);fill-opacity:1;" d="M 74.40625 212.351562 C 71.78125 212.351562 71.78125 216.414062 74.40625 216.414062 C 77.027344 216.414062 77.027344 212.351562 74.40625 212.351562 Z M 74.40625 212.351562 "/>
<path style=" stroke:none;fill-rule:nonzero;fill:rgb(85.488892%,18.429565%,48.629761%);fill-opacity:1;" d="M 62.417969 229.996094 C 59.964844 229.996094 59.964844 233.796875 62.417969 233.796875 C 64.871094 233.796875 64.871094 229.996094 62.417969 229.996094 Z M 62.417969 229.996094 "/>
<path style=" stroke:none;fill-rule:nonzero;fill:rgb(85.488892%,18.429565%,48.629761%);fill-opacity:1;" d="M 83.625 222.132812 C 81.734375 222.132812 81.734375 225.070312 83.625 225.070312 C 85.519531 225.070312 85.519531 222.132812 83.625 222.132812 Z M 83.625 222.132812 "/>
<path style=" stroke:none;fill-rule:nonzero;fill:rgb(85.488892%,18.429565%,48.629761%);fill-opacity:1;" d="M 99.300781 214.398438 C 101.699219 214.398438 101.699219 210.683594 99.300781 210.683594 C 96.902344 210.683594 96.902344 214.398438 99.300781 214.398438 Z M 99.300781 214.398438 "/>
<path style=" stroke:none;fill-rule:nonzero;fill:rgb(85.488892%,18.429565%,48.629761%);fill-opacity:1;" d="M 92.847656 200.339844 C 96.132812 200.339844 96.132812 195.242188 92.847656 195.242188 C 89.558594 195.242188 89.558594 200.339844 92.847656 200.339844 Z M 92.847656 200.339844 "/>
<path style=" stroke:none;fill-rule:nonzero;fill:rgb(85.488892%,18.429565%,48.629761%);fill-opacity:1;" d="M 88.238281 178.476562 C 84.726562 178.476562 84.726562 183.917969 88.238281 183.917969 C 91.746094 183.917969 91.746094 178.476562 88.238281 178.476562 Z M 88.238281 178.476562 "/>
<path style=" stroke:none;fill-rule:nonzero;fill:rgb(85.488892%,18.429565%,48.629761%);fill-opacity:1;" d="M 120.511719 199.726562 C 124.191406 199.726562 124.191406 194.019531 120.511719 194.019531 C 116.828125 194.019531 116.828125 199.726562 120.511719 199.726562 Z M 120.511719 199.726562 "/>
<path style=" stroke:none;fill-rule:nonzero;fill:rgb(85.488892%,18.429565%,48.629761%);fill-opacity:1;" d="M 115.898438 221.800781 C 114.222656 221.800781 112.675781 223.554688 113.277344 225.246094 C 113.355469 225.488281 113.441406 225.71875 113.523438 225.953125 C 114.34375 228.300781 117.457031 228.300781 118.277344 225.953125 C 118.359375 225.71875 118.441406 225.488281 118.527344 225.246094 C 119.121094 223.554688 117.578125 221.800781 115.898438 221.800781 Z M 115.898438 221.800781 "/>
<path style=" stroke:none;fill-rule:nonzero;fill:rgb(85.488892%,18.429565%,48.629761%);fill-opacity:1;" d="M 109.445312 240.121094 C 108.164062 240.121094 108.164062 242.109375 109.445312 242.109375 C 110.726562 242.109375 110.726562 240.121094 109.445312 240.121094 Z M 109.445312 240.121094 "/>
<path style=" stroke:none;fill-rule:nonzero;fill:rgb(85.488892%,18.429565%,48.629761%);fill-opacity:1;" d="M 122.355469 216.195312 C 124.699219 216.195312 124.699219 212.566406 122.355469 212.566406 C 120.011719 212.570312 120.011719 216.195312 122.355469 216.195312 Z M 122.355469 216.195312 "/>
<path style=" stroke:none;fill-rule:nonzero;fill:rgb(85.488892%,18.429565%,48.629761%);fill-opacity:1;" d="M 99.300781 225.703125 C 96.066406 225.703125 96.066406 230.714844 99.300781 230.714844 C 102.53125 230.714844 102.53125 225.703125 99.300781 225.703125 Z M 99.300781 225.703125 "/>
<path style=" stroke:none;fill-rule:nonzero;fill:rgb(85.488892%,18.429565%,48.629761%);fill-opacity:1;" d="M 76.25 239.300781 C 73.90625 239.300781 73.90625 242.929688 76.25 242.929688 C 78.589844 242.929688 78.589844 239.300781 76.25 239.300781 Z M 76.25 239.300781 "/>
<path style=" stroke:none;fill-rule:nonzero;fill:rgb(85.488892%,18.429565%,48.629761%);fill-opacity:1;" d="M 83.953125 74.40625 C 86.195312 74.40625 86.515625 71.449219 84.921875 70.582031 C 84.023438 70.839844 83.117188 71.109375 82.214844 71.398438 C 81.628906 72.601562 82.199219 74.40625 83.953125 74.40625 Z M 83.953125 74.40625 "/>
<path style=" stroke:none;fill-rule:nonzero;fill:rgb(85.488892%,18.429565%,48.629761%);fill-opacity:1;" d="M 71.960938 91.792969 C 74.417969 91.792969 74.417969 87.988281 71.960938 87.988281 C 69.515625 87.988281 69.515625 91.792969 71.960938 91.792969 Z M 71.960938 91.792969 "/>
<path style=" stroke:none;fill-rule:nonzero;fill:rgb(85.488892%,18.429565%,48.629761%);fill-opacity:1;" d="M 57.304688 84.421875 C 56.289062 85.191406 55.28125 85.976562 54.289062 86.796875 C 54.574219 86.957031 54.914062 87.058594 55.320312 87.058594 C 56.914062 87.058594 57.570312 85.625 57.304688 84.421875 Z M 57.304688 84.421875 "/>
<path style=" stroke:none;fill-rule:nonzero;fill:rgb(85.488892%,18.429565%,48.629761%);fill-opacity:1;" d="M 58.136719 97.492188 C 60.8125 97.492188 60.8125 93.347656 58.136719 93.347656 C 55.457031 93.347656 55.457031 97.492188 58.136719 97.492188 Z M 58.136719 97.492188 "/>
<path style=" stroke:none;fill-rule:nonzero;fill:rgb(85.488892%,18.429565%,48.629761%);fill-opacity:1;" d="M 93.175781 83.0625 C 95.070312 83.0625 95.070312 80.132812 93.175781 80.132812 C 91.28125 80.132812 91.28125 83.0625 93.175781 83.0625 Z M 93.175781 83.0625 "/>
<path style=" stroke:none;fill-rule:nonzero;fill:rgb(85.488892%,18.429565%,48.629761%);fill-opacity:1;" d="M 108.847656 72.390625 C 111.246094 72.390625 111.246094 68.675781 108.847656 68.675781 C 106.453125 68.675781 106.453125 72.390625 108.847656 72.390625 Z M 108.847656 72.390625 "/>
<path style=" stroke:none;fill-rule:nonzero;fill:rgb(85.488892%,18.429565%,48.629761%);fill-opacity:1;" d="M 123.074219 83.949219 C 123.894531 86.292969 127.007812 86.292969 127.828125 83.949219 C 127.910156 83.710938 127.992188 83.480469 128.078125 83.242188 C 128.671875 81.550781 127.128906 79.792969 125.445312 79.792969 C 123.773438 79.792969 122.230469 81.550781 122.824219 83.242188 C 122.90625 83.480469 122.988281 83.710938 123.074219 83.949219 Z M 123.074219 83.949219 "/>
<path style=" stroke:none;fill-rule:nonzero;fill:rgb(85.488892%,18.429565%,48.629761%);fill-opacity:1;" d="M 118.992188 100.105469 C 120.277344 100.105469 120.277344 98.117188 118.992188 98.117188 C 117.710938 98.117188 117.710938 100.105469 118.992188 100.105469 Z M 118.992188 100.105469 "/>
<path style=" stroke:none;fill-rule:nonzero;fill:rgb(85.488892%,18.429565%,48.629761%);fill-opacity:1;" d="M 108.847656 88.710938 C 112.085938 88.710938 112.085938 83.699219 108.847656 83.699219 C 105.617188 83.699219 105.617188 88.710938 108.847656 88.710938 Z M 108.847656 88.710938 "/>
<path style=" stroke:none;fill-rule:nonzero;fill:rgb(85.488892%,18.429565%,48.629761%);fill-opacity:1;" d="M 85.800781 100.921875 C 88.136719 100.921875 88.136719 97.292969 85.800781 97.292969 C 83.457031 97.292969 83.457031 100.921875 85.800781 100.921875 Z M 85.800781 100.921875 "/>
<path style=" stroke:none;fill-rule:nonzero;fill:rgb(85.488892%,18.429565%,48.629761%);fill-opacity:1;" d="M 41.949219 160.816406 C 42.34375 160.902344 42.742188 160.988281 43.136719 161.082031 C 45.34375 161.585938 47.566406 160.058594 47.566406 157.710938 C 47.566406 155.351562 45.34375 153.835938 43.136719 154.335938 C 42.742188 154.425781 42.34375 154.511719 41.949219 154.601562 C 38.867188 155.304688 38.867188 160.117188 41.949219 160.816406 Z M 41.949219 160.816406 "/>
<path style=" stroke:none;fill-rule:nonzero;fill:rgb(85.488892%,18.429565%,48.629761%);fill-opacity:1;" d="M 38.035156 130.203125 C 38.777344 130.203125 39.351562 130.453125 39.777344 130.832031 C 39.71875 129.761719 39 128.730469 37.613281 128.730469 C 35.777344 128.730469 35.109375 130.53125 35.597656 131.855469 C 35.945312 130.929688 36.753906 130.203125 38.035156 130.203125 Z M 38.035156 130.203125 "/>
<path style=" stroke:none;fill-rule:nonzero;fill:rgb(85.488892%,18.429565%,48.629761%);fill-opacity:1;" d="M 91.011719 122.636719 C 98.089844 122.636719 98.089844 111.664062 91.011719 111.664062 C 83.929688 111.667969 83.929688 122.636719 91.011719 122.636719 Z M 91.011719 122.636719 "/>
<path style=" stroke:none;fill-rule:nonzero;fill:rgb(85.488892%,18.429565%,48.629761%);fill-opacity:1;" d="M 60.664062 132.710938 C 62.898438 132.710938 62.898438 129.25 60.664062 129.25 C 58.433594 129.25 58.433594 132.710938 60.664062 132.710938 Z M 60.664062 132.710938 "/>
<path style=" stroke:none;fill-rule:nonzero;fill:rgb(85.488892%,18.429565%,48.629761%);fill-opacity:1;" d="M 73.578125 115.304688 C 77.140625 115.304688 77.140625 109.777344 73.578125 109.777344 C 70.007812 109.777344 70.007812 115.304688 73.578125 115.304688 Z M 73.578125 115.304688 "/>
<path style=" stroke:none;fill-rule:nonzero;fill:rgb(85.488892%,18.429565%,48.629761%);fill-opacity:1;" d="M 56.058594 105.121094 C 52.433594 105.121094 52.433594 110.742188 56.058594 110.742188 C 59.679688 110.742188 59.679688 105.121094 56.058594 105.121094 Z M 56.058594 105.121094 "/>
<path style=" stroke:none;fill-rule:nonzero;fill:rgb(85.488892%,18.429565%,48.629761%);fill-opacity:1;" d="M 49.15625 121.175781 C 51.277344 121.175781 51.277344 117.894531 49.15625 117.894531 C 47.039062 117.894531 47.039062 121.175781 49.15625 121.175781 Z M 49.15625 121.175781 "/>
<path style=" stroke:none;fill-rule:nonzero;fill:rgb(85.488892%,18.429565%,48.629761%);fill-opacity:1;" d="M 87.40625 136.695312 C 90.03125 136.695312 90.03125 132.636719 87.40625 132.636719 C 84.785156 132.636719 84.785156 136.695312 87.40625 136.695312 Z M 87.40625 136.695312 "/>
<path style=" stroke:none;fill-rule:nonzero;fill:rgb(85.488892%,18.429565%,48.629761%);fill-opacity:1;" d="M 75.421875 154.074219 C 77.867188 154.074219 77.867188 150.277344 75.421875 150.277344 C 72.96875 150.277344 72.96875 154.074219 75.421875 154.074219 Z M 75.421875 154.074219 "/>
<path style=" stroke:none;fill-rule:nonzero;fill:rgb(85.488892%,18.429565%,48.629761%);fill-opacity:1;" d="M 58.773438 145.117188 C 56.042969 145.117188 56.042969 149.347656 58.773438 149.347656 C 61.503906 149.347656 61.503906 145.117188 58.773438 145.117188 Z M 58.773438 145.117188 "/>
<path style=" stroke:none;fill-rule:nonzero;fill:rgb(85.488892%,18.429565%,48.629761%);fill-opacity:1;" d="M 61.589844 159.78125 C 64.265625 159.78125 64.265625 155.632812 61.589844 155.632812 C 58.914062 155.632812 58.914062 159.78125 61.589844 159.78125 Z M 61.589844 159.78125 "/>
<path style=" stroke:none;fill-rule:nonzero;fill:rgb(85.488892%,18.429565%,48.629761%);fill-opacity:1;" d="M 39.878906 143.511719 C 38.207031 143.511719 38.207031 146.097656 39.878906 146.097656 C 41.550781 146.097656 41.550781 143.511719 39.878906 143.511719 Z M 39.878906 143.511719 "/>
<path style=" stroke:none;fill-rule:nonzero;fill:rgb(85.488892%,18.429565%,48.629761%);fill-opacity:1;" d="M 96.628906 142.414062 C 94.730469 142.414062 94.730469 145.355469 96.628906 145.355469 C 98.523438 145.355469 98.523438 142.414062 96.628906 142.414062 Z M 96.628906 142.414062 "/>
<path style=" stroke:none;fill-rule:nonzero;fill:rgb(85.488892%,18.429565%,48.629761%);fill-opacity:1;" d="M 112.304688 134.675781 C 114.703125 134.675781 114.703125 130.960938 112.304688 130.960938 C 109.902344 130.960938 109.902344 134.675781 112.304688 134.675781 Z M 112.304688 134.675781 "/>
<path style=" stroke:none;fill-rule:nonzero;fill:rgb(85.488892%,18.429565%,48.629761%);fill-opacity:1;" d="M 105.847656 115.519531 C 102.558594 115.519531 102.558594 120.621094 105.847656 120.621094 C 109.136719 120.621094 109.136719 115.519531 105.847656 115.519531 Z M 105.847656 115.519531 "/>
<path style=" stroke:none;fill-rule:nonzero;fill:rgb(85.488892%,18.429565%,48.629761%);fill-opacity:1;" d="M 101.238281 98.757812 C 97.726562 98.757812 97.726562 104.203125 101.238281 104.203125 C 104.75 104.203125 104.75 98.757812 101.238281 98.757812 Z M 101.238281 98.757812 "/>
<path style=" stroke:none;fill-rule:nonzero;fill:rgb(85.488892%,18.429565%,48.629761%);fill-opacity:1;" d="M 133.511719 120.003906 C 137.195312 120.003906 137.195312 114.304688 133.511719 114.304688 C 129.832031 114.304688 129.832031 120.003906 133.511719 120.003906 Z M 133.511719 120.003906 "/>
<path style=" stroke:none;fill-rule:nonzero;fill:rgb(85.488892%,18.429565%,48.629761%);fill-opacity:1;" d="M 126.273438 145.53125 C 126.359375 145.769531 126.441406 146 126.527344 146.234375 C 127.34375 148.582031 130.457031 148.582031 131.28125 146.234375 C 131.363281 146 131.445312 145.769531 131.527344 145.53125 C 132.121094 143.835938 130.578125 142.082031 128.902344 142.082031 C 127.226562 142.082031 125.679688 143.835938 126.273438 145.53125 Z M 126.273438 145.53125 "/>
<path style=" stroke:none;fill-rule:nonzero;fill:rgb(85.488892%,18.429565%,48.629761%);fill-opacity:1;" d="M 122.445312 162.390625 C 123.730469 162.390625 123.730469 160.402344 122.445312 160.402344 C 121.164062 160.402344 121.164062 162.390625 122.445312 162.390625 Z M 122.445312 162.390625 "/>
<path style=" stroke:none;fill-rule:nonzero;fill:rgb(85.488892%,18.429565%,48.629761%);fill-opacity:1;" d="M 135.359375 136.484375 C 137.699219 136.484375 137.699219 132.851562 135.359375 132.851562 C 133.015625 132.851562 133.015625 136.484375 135.359375 136.484375 Z M 135.359375 136.484375 "/>
<path style=" stroke:none;fill-rule:nonzero;fill:rgb(85.488892%,18.429565%,48.629761%);fill-opacity:1;" d="M 112.304688 145.984375 C 109.070312 145.984375 109.070312 150.996094 112.304688 150.996094 C 115.539062 150.996094 115.539062 145.984375 112.304688 145.984375 Z M 112.304688 145.984375 "/>
<path style=" stroke:none;fill-rule:nonzero;fill:rgb(85.488892%,18.429565%,48.629761%);fill-opacity:1;" d="M 89.25 159.582031 C 86.910156 159.582031 86.910156 163.214844 89.25 163.214844 C 91.59375 163.214844 91.59375 159.582031 89.25 159.582031 Z M 89.25 159.582031 "/>
<path style=" stroke:none;fill-rule:nonzero;fill:rgb(85.488892%,18.429565%,48.629761%);fill-opacity:1;" d="M 37.613281 117.742188 C 39.566406 117.742188 39.566406 114.714844 37.613281 114.714844 C 35.660156 114.714844 35.660156 117.742188 37.613281 117.742188 Z M 37.613281 117.742188 "/>
<path style=" stroke:none;fill-rule:nonzero;fill:rgb(85.488892%,18.429565%,48.629761%);fill-opacity:1;" d="M 38.535156 107.472656 C 40.320312 107.472656 40.320312 104.707031 38.535156 104.707031 C 38.285156 104.707031 38.078125 104.773438 37.894531 104.867188 C 37.675781 105.195312 37.453125 105.515625 37.234375 105.84375 C 37.113281 106.609375 37.535156 107.472656 38.535156 107.472656 Z M 38.535156 107.472656 "/>
<path style=" stroke:none;fill-rule:nonzero;fill:rgb(85.488892%,18.429565%,48.629761%);fill-opacity:1;" d="M 27.808594 143.109375 C 26.21875 143.109375 25.011719 143.675781 24.132812 144.53125 C 23.929688 147.101562 23.847656 149.734375 23.871094 152.410156 C 24.753906 153.417969 26.066406 154.082031 27.808594 154.082031 C 34.890625 154.082031 34.890625 143.109375 27.808594 143.109375 Z M 27.808594 143.109375 "/>
<path style=" stroke:none;fill-rule:nonzero;fill:rgb(85.488892%,18.429565%,48.629761%);fill-opacity:1;" d="M 24.707031 164.136719 C 24.871094 165.363281 25.0625 166.597656 25.273438 167.839844 C 26.628906 166.988281 26.441406 164.539062 24.707031 164.136719 Z M 24.707031 164.136719 "/>
<path style=" stroke:none;fill-rule:nonzero;fill:rgb(85.488892%,18.429565%,48.629761%);fill-opacity:1;" d="M 33.425781 173.859375 C 31.53125 173.859375 31.53125 176.800781 33.425781 176.800781 C 35.320312 176.800781 35.320312 173.859375 33.425781 173.859375 Z M 33.425781 173.859375 "/>
<path style=" stroke:none;fill-rule:nonzero;fill:rgb(85.488892%,18.429565%,48.629761%);fill-opacity:1;" d="M 49.101562 162.40625 C 46.699219 162.40625 46.699219 166.121094 49.101562 166.121094 C 51.496094 166.121094 51.496094 162.40625 49.101562 162.40625 Z M 49.101562 162.40625 "/>
<path style=" stroke:none;fill-rule:nonzero;fill:rgb(85.488892%,18.429565%,48.629761%);fill-opacity:1;" d="M 42.644531 152.066406 C 45.933594 152.066406 45.933594 146.96875 42.644531 146.96875 C 39.359375 146.96875 39.359375 152.066406 42.644531 152.066406 Z M 42.644531 152.066406 "/>
<path style=" stroke:none;fill-rule:nonzero;fill:rgb(85.488892%,18.429565%,48.629761%);fill-opacity:1;" d="M 39.777344 130.832031 C 39.347656 130.453125 38.773438 130.203125 38.035156 130.203125 C 36.753906 130.203125 35.945312 130.929688 35.597656 131.855469 C 34.996094 133.457031 35.808594 135.648438 38.035156 135.648438 C 40.808594 135.648438 41.382812 132.265625 39.777344 130.832031 Z M 39.777344 130.832031 "/>
<path style=" stroke:none;fill-rule:nonzero;fill:rgb(85.488892%,18.429565%,48.629761%);fill-opacity:1;" d="M 70.308594 145.742188 C 66.628906 145.742188 66.628906 151.449219 70.308594 151.449219 C 73.992188 151.449219 73.992188 145.742188 70.308594 145.742188 Z M 70.308594 145.742188 "/>
<path style=" stroke:none;fill-rule:nonzero;fill:rgb(85.488892%,18.429565%,48.629761%);fill-opacity:1;" d="M 65.699219 173.523438 C 64.019531 173.523438 62.476562 175.28125 63.074219 176.972656 C 63.15625 177.207031 63.238281 177.441406 63.320312 177.683594 C 64.140625 180.023438 67.257812 180.023438 68.078125 177.683594 C 68.160156 177.441406 68.242188 177.207031 68.328125 176.972656 C 68.917969 175.28125 67.375 173.523438 65.699219 173.523438 Z M 65.699219 173.523438 "/>
<path style=" stroke:none;fill-rule:nonzero;fill:rgb(85.488892%,18.429565%,48.629761%);fill-opacity:1;" d="M 59.242188 191.847656 C 57.957031 191.847656 57.957031 193.835938 59.242188 193.835938 C 60.527344 193.835938 60.527344 191.847656 59.242188 191.847656 Z M 59.242188 191.847656 "/>
<path style=" stroke:none;fill-rule:nonzero;fill:rgb(85.488892%,18.429565%,48.629761%);fill-opacity:1;" d="M 72.15625 164.296875 C 69.8125 164.296875 69.8125 167.921875 72.15625 167.921875 C 74.492188 167.921875 74.492188 164.296875 72.15625 164.296875 Z M 72.15625 164.296875 "/>
<path style=" stroke:none;fill-rule:nonzero;fill:rgb(85.488892%,18.429565%,48.629761%);fill-opacity:1;" d="M 49.101562 177.433594 C 45.867188 177.433594 45.867188 182.445312 49.101562 182.445312 C 52.335938 182.445312 52.335938 177.433594 49.101562 177.433594 Z M 49.101562 177.433594 "/>
<path style=" stroke:none;fill-rule:nonzero;fill:rgb(85.488892%,18.429565%,48.629761%);fill-opacity:1;" d="M 124.667969 245.863281 C 117.585938 245.863281 117.585938 256.839844 124.667969 256.839844 C 131.753906 256.839844 131.753906 245.863281 124.667969 245.863281 Z M 124.667969 245.863281 "/>
<path style=" stroke:none;fill-rule:nonzero;fill:rgb(85.488892%,18.429565%,48.629761%);fill-opacity:1;" d="M 94.324219 263.453125 C 92.097656 263.453125 92.097656 266.90625 94.324219 266.90625 C 96.554688 266.90625 96.554688 263.453125 94.324219 263.453125 Z M 94.324219 263.453125 "/>
<path style=" stroke:none;fill-rule:nonzero;fill:rgb(85.488892%,18.429565%,48.629761%);fill-opacity:1;" d="M 107.238281 243.980469 C 103.671875 243.980469 103.671875 249.511719 107.238281 249.511719 C 110.800781 249.511719 110.800781 243.980469 107.238281 243.980469 Z M 107.238281 243.980469 "/>
<path style=" stroke:none;fill-rule:nonzero;fill:rgb(85.488892%,18.429565%,48.629761%);fill-opacity:1;" d="M 89.71875 239.328125 C 86.089844 239.328125 86.089844 244.945312 89.71875 244.945312 C 93.339844 244.945312 93.339844 239.328125 89.71875 239.328125 Z M 89.71875 239.328125 "/>
<path style=" stroke:none;fill-rule:nonzero;fill:rgb(85.488892%,18.429565%,48.629761%);fill-opacity:1;" d="M 82.820312 252.097656 C 80.699219 252.097656 80.699219 255.382812 82.820312 255.382812 C 84.933594 255.382812 84.933594 252.097656 82.820312 252.097656 Z M 82.820312 252.097656 "/>
<path style=" stroke:none;fill-rule:nonzero;fill:rgb(85.488892%,18.429565%,48.629761%);fill-opacity:1;" d="M 121.066406 266.839844 C 118.449219 266.839844 118.449219 270.902344 121.066406 270.902344 C 123.691406 270.898438 123.691406 266.839844 121.066406 266.839844 Z M 121.066406 266.839844 "/>
<path style=" stroke:none;fill-rule:nonzero;fill:rgb(85.488892%,18.429565%,48.629761%);fill-opacity:1;" d="M 109.082031 284.484375 C 108.917969 284.484375 108.773438 284.5 108.632812 284.535156 C 109.394531 285.191406 110.152344 285.847656 110.910156 286.496094 C 110.960938 285.507812 110.355469 284.484375 109.082031 284.484375 Z M 109.082031 284.484375 "/>
<path style=" stroke:none;fill-rule:nonzero;fill:rgb(85.488892%,18.429565%,48.629761%);fill-opacity:1;" d="M 130.289062 276.617188 C 128.394531 276.617188 128.394531 279.554688 130.289062 279.554688 C 132.1875 279.554688 132.1875 276.617188 130.289062 276.617188 Z M 130.289062 276.617188 "/>
<path style=" stroke:none;fill-rule:nonzero;fill:rgb(85.488892%,18.429565%,48.629761%);fill-opacity:1;" d="M 145.960938 268.882812 C 148.363281 268.882812 148.363281 265.167969 145.960938 265.167969 C 143.566406 265.167969 143.566406 268.882812 145.960938 268.882812 Z M 145.960938 268.882812 "/>
<path style=" stroke:none;fill-rule:nonzero;fill:rgb(85.488892%,18.429565%,48.629761%);fill-opacity:1;" d="M 139.511719 249.730469 C 136.222656 249.730469 136.222656 254.824219 139.511719 254.824219 C 142.800781 254.824219 142.800781 249.730469 139.511719 249.730469 Z M 139.511719 249.730469 "/>
<path style=" stroke:none;fill-rule:nonzero;fill:rgb(85.488892%,18.429565%,48.629761%);fill-opacity:1;" d="M 134.902344 232.964844 C 131.386719 232.964844 131.386719 238.40625 134.902344 238.40625 C 138.410156 238.40625 138.410156 232.964844 134.902344 232.964844 Z M 134.902344 232.964844 "/>
<path style=" stroke:none;fill-rule:nonzero;fill:rgb(85.488892%,18.429565%,48.629761%);fill-opacity:1;" d="M 167.175781 248.503906 C 163.492188 248.503906 163.492188 254.207031 167.175781 254.207031 C 170.855469 254.207031 170.855469 248.503906 167.175781 248.503906 Z M 167.175781 248.503906 "/>
<path style=" stroke:none;fill-rule:nonzero;fill:rgb(85.488892%,18.429565%,48.629761%);fill-opacity:1;" d="M 160.183594 280.441406 C 161.007812 282.785156 164.121094 282.785156 164.941406 280.441406 C 165.023438 280.203125 165.105469 279.96875 165.1875 279.734375 C 165.777344 278.039062 164.238281 276.289062 162.558594 276.289062 C 160.886719 276.289062 159.335938 278.039062 159.9375 279.734375 C 160.019531 279.96875 160.105469 280.203125 160.183594 280.441406 Z M 160.183594 280.441406 "/>
<path style=" stroke:none;fill-rule:nonzero;fill:rgb(85.488892%,18.429565%,48.629761%);fill-opacity:1;" d="M 156.105469 296.59375 C 157.390625 296.59375 157.390625 294.609375 156.105469 294.609375 C 154.828125 294.609375 154.828125 296.59375 156.105469 296.59375 Z M 156.105469 296.59375 "/>
<path style=" stroke:none;fill-rule:nonzero;fill:rgb(85.488892%,18.429565%,48.629761%);fill-opacity:1;" d="M 169.019531 267.050781 C 166.671875 267.050781 166.671875 270.6875 169.019531 270.6875 C 171.359375 270.6875 171.359375 267.050781 169.019531 267.050781 Z M 169.019531 267.050781 "/>
<path style=" stroke:none;fill-rule:nonzero;fill:rgb(85.488892%,18.429565%,48.629761%);fill-opacity:1;" d="M 145.960938 280.191406 C 142.730469 280.191406 142.730469 285.199219 145.960938 285.199219 C 149.195312 285.199219 149.195312 280.191406 145.960938 280.191406 Z M 145.960938 280.191406 "/>
<path style=" stroke:none;fill-rule:nonzero;fill:rgb(85.488892%,18.429565%,48.629761%);fill-opacity:1;" d="M 124.617188 296.027344 C 124.835938 295 124.265625 293.78125 122.910156 293.78125 C 121.960938 293.78125 121.402344 294.382812 121.222656 295.097656 C 122.089844 295.800781 122.949219 296.496094 123.808594 297.183594 C 124.246094 296.9375 124.519531 296.503906 124.617188 296.027344 Z M 124.617188 296.027344 "/>
<path style=" stroke:none;fill-rule:nonzero;fill:rgb(85.488892%,18.429565%,48.629761%);fill-opacity:1;" d="M 71.707031 249.011719 C 72.03125 249.359375 72.351562 249.707031 72.679688 250.0625 C 72.566406 249.570312 72.246094 249.164062 71.707031 249.011719 Z M 71.707031 249.011719 "/>
<path style=" stroke:none;fill-rule:nonzero;fill:rgb(85.488892%,18.429565%,48.629761%);fill-opacity:1;" d="M 72.195312 238.914062 C 70.410156 238.914062 70.410156 241.679688 72.195312 241.679688 C 73.984375 241.675781 73.984375 238.914062 72.195312 238.914062 Z M 72.195312 238.914062 "/>
<path style=" stroke:none;fill-rule:nonzero;fill:rgb(68.629456%,14.509583%,43.139648%);fill-opacity:1;" d="M 149.59375 258.003906 C 149.554688 258.003906 149.515625 258.003906 149.476562 258 C 148.609375 257.949219 147.898438 257.296875 147.765625 256.4375 L 137.519531 189.40625 L 130.265625 214.945312 C 130.042969 215.738281 129.316406 216.289062 128.492188 216.289062 L 61.304688 216.289062 C 60.28125 216.289062 59.457031 215.460938 59.457031 214.441406 C 59.457031 213.421875 60.28125 212.597656 61.304688 212.597656 L 127.09375 212.597656 L 136.285156 180.230469 C 136.523438 179.394531 137.304688 178.835938 138.179688 178.890625 C 139.046875 178.945312 139.757812 179.597656 139.886719 180.457031 L 150.125 247.421875 L 159.519531 213.945312 C 159.742188 213.148438 160.46875 212.597656 161.296875 212.597656 L 176.484375 212.597656 L 182.152344 199.546875 C 182.464844 198.828125 183.191406 198.382812 183.980469 198.441406 C 184.761719 198.496094 185.421875 199.042969 185.628906 199.796875 L 192.511719 225.085938 L 197.886719 213.65625 C 198.191406 213.011719 198.84375 212.597656 199.558594 212.597656 L 210.285156 212.597656 L 217.589844 203.328125 C 217.957031 202.863281 218.527344 202.59375 219.121094 202.625 C 219.71875 202.652344 220.261719 202.964844 220.585938 203.464844 L 225.703125 211.324219 L 231.628906 204.105469 C 232.003906 203.648438 232.574219 203.398438 233.167969 203.433594 C 233.761719 203.46875 234.296875 203.789062 234.617188 204.289062 L 239.871094 212.597656 L 309.582031 212.597656 C 310.601562 212.597656 311.429688 213.421875 311.429688 214.441406 C 311.429688 215.464844 310.601562 216.289062 309.582031 216.289062 L 238.851562 216.289062 C 238.21875 216.289062 237.628906 215.964844 237.289062 215.429688 L 232.859375 208.421875 L 226.957031 215.613281 C 226.582031 216.070312 226.015625 216.3125 225.425781 216.289062 C 224.839844 216.253906 224.300781 215.945312 223.980469 215.449219 L 218.894531 207.636719 L 212.632812 215.585938 C 212.28125 216.03125 211.746094 216.289062 211.179688 216.289062 L 200.730469 216.289062 L 193.71875 231.199219 C 193.390625 231.902344 192.648438 232.328125 191.886719 232.253906 C 191.117188 232.1875 190.46875 231.648438 190.265625 230.898438 L 183.445312 205.84375 L 179.390625 215.179688 C 179.097656 215.851562 178.429688 216.289062 177.695312 216.289062 L 162.699219 216.289062 L 151.367188 256.660156 C 151.144531 257.457031 150.414062 258.003906 149.59375 258.003906 Z M 149.59375 258.003906 "/>
<g clip-path="url(#clip1)" clip-rule="nonzero">
<path style=" stroke:none;fill-rule:nonzero;fill:rgb(68.629456%,14.509583%,43.139648%);fill-opacity:1;" d="M 192.046875 337.25 C 191.390625 337.25 190.753906 336.898438 190.417969 336.277344 C 189.9375 335.378906 190.273438 334.257812 191.175781 333.777344 C 279.917969 286.1875 338.285156 222.390625 347.300781 163.121094 C 351.511719 135.453125 344.355469 111.277344 326.601562 93.214844 C 315.769531 82.195312 297.378906 69.300781 271.242188 70.480469 C 240.316406 71.871094 207.042969 93.238281 175.023438 132.277344 C 174.375 133.0625 173.214844 133.179688 172.425781 132.535156 C 171.636719 131.886719 171.519531 130.722656 172.167969 129.933594 C 204.867188 90.066406 239.070312 68.230469 271.078125 66.792969 C 298.5625 65.554688 317.878906 79.074219 329.234375 90.628906 C 347.835938 109.550781 355.34375 134.8125 350.953125 163.679688 C 341.761719 224.089844 282.683594 288.894531 192.921875 337.03125 C 192.640625 337.179688 192.34375 337.25 192.046875 337.25 Z M 192.046875 337.25 "/>
</g>
</g>
</svg>
